<?xml version="1.0" standalone="no"?>
<!DOCTYPE svg PUBLIC "-//W3C//DTD SVG 20010904//EN"
 "http://www.w3.org/TR/2001/REC-SVG-20010904/DTD/svg10.dtd">
<svg version="1.0" xmlns="http://www.w3.org/2000/svg"
 width="512.000000pt" height="512.000000pt" viewBox="0 0 512.000000 512.000000"
 preserveAspectRatio="xMidYMid meet">

<g transform="translate(0.000000,512.000000) scale(0.100000,-0.100000)"
fill="#000000" stroke="none">
<path d="M3156 4838 c-8 -13 -19 -50 -25 -83 -6 -33 -15 -91 -22 -128 -13 -75
-45 -132 -74 -132 -14 0 -24 14 -37 50 -17 47 -75 115 -98 115 -5 0 -16 -10
-25 -23 -12 -19 -13 -39 -6 -108 9 -90 7 -99 -14 -99 -16 0 -20 4 -105 103
l-65 76 -80 -5 c-78 -6 -82 -5 -149 30 -120 63 -151 47 -140 -71 5 -60 4 -71
-16 -95 -16 -21 -30 -28 -56 -28 -25 0 -41 -8 -61 -30 -37 -42 -64 -39 -99 13
-26 39 -29 51 -34 162 -6 144 -19 175 -75 175 -24 0 -46 -10 -72 -32 -119
-100 -163 -158 -163 -216 0 -39 -19 -60 -59 -64 -29 -3 -42 -13 -80 -65 -25
-34 -56 -76 -68 -95 -40 -61 -113 -218 -113 -243 0 -15 -7 -40 -16 -57 -21
-40 -13 -65 36 -113 39 -39 41 -39 82 -28 l43 11 62 -55 c35 -30 66 -65 69
-78 9 -34 -34 -155 -66 -187 -23 -23 -34 -26 -63 -21 -44 7 -52 -6 -65 -106
-6 -40 -22 -96 -35 -125 -14 -28 -31 -72 -37 -98 -15 -58 -40 -82 -86 -82 -28
0 -44 9 -85 50 -46 46 -51 56 -59 114 -15 104 8 181 59 198 17 6 42 28 57 51
28 43 42 49 62 29 16 -16 16 -141 0 -185 -12 -33 -4 -58 12 -33 10 17 23 196
22 305 -1 65 -7 99 -36 179 -58 161 -101 208 -208 220 -71 9 -133 -7 -154 -39
-9 -14 -22 -25 -28 -25 -7 0 -27 -16 -46 -35 -26 -27 -35 -46 -41 -88 -3 -29
-17 -75 -30 -103 -23 -46 -24 -59 -23 -239 1 -153 4 -199 18 -235 29 -77 32
-150 7 -198 -24 -47 -46 -62 -90 -62 -23 0 -44 -13 -86 -52 -75 -71 -163 -118
-219 -118 -36 0 -49 -5 -65 -25 -37 -48 -36 -59 4 -267 17 -84 17 -90 -1 -135
-10 -28 -18 -76 -18 -116 -1 -63 1 -71 27 -93 25 -21 34 -23 85 -18 50 6 65 3
110 -20 77 -39 88 -69 47 -130 -14 -20 -25 -44 -25 -53 0 -9 -17 -46 -37 -82
-36 -63 -38 -70 -41 -178 -4 -106 -3 -115 28 -195 42 -110 88 -184 150 -242
44 -41 55 -47 87 -44 32 3 41 10 80 68 82 121 82 121 152 53 67 -67 92 -136
90 -253 -1 -47 1 -92 5 -99 13 -20 35 -123 36 -161 0 -19 12 -60 26 -90 36
-76 61 -149 89 -259 14 -51 30 -100 36 -108 19 -22 51 -11 76 27 37 57 44 62
67 54 11 -3 39 -7 61 -8 37 -1 41 2 59 38 10 21 26 59 35 84 32 89 75 82 105
-17 10 -34 25 -65 33 -68 9 -4 31 2 49 12 41 22 48 17 99 -69 21 -35 56 -85
79 -111 37 -41 47 -47 102 -55 34 -6 78 -17 98 -25 19 -8 60 -15 90 -15 53 0
56 1 99 51 25 29 53 68 63 88 9 20 21 43 25 51 5 8 26 51 47 95 27 57 51 90
80 113 53 42 77 97 92 205 10 71 10 90 -1 103 -16 20 -22 111 -8 120 6 3 16 1
22 -5 6 -6 25 -11 42 -11 40 0 59 -21 77 -86 8 -28 33 -75 55 -105 22 -30 50
-76 62 -104 12 -27 38 -67 59 -87 32 -34 41 -38 87 -38 36 0 61 -7 90 -25 52
-32 126 -34 156 -4 36 36 79 112 79 140 0 14 9 38 20 52 11 14 20 36 20 50 0
14 5 48 12 77 12 53 7 88 -29 201 -12 39 -21 49 -56 65 -33 15 -42 24 -42 44
0 20 10 30 49 49 27 14 73 27 102 29 56 5 71 -4 116 -71 13 -19 33 -29 75 -38
72 -15 91 -14 112 5 20 18 51 21 51 6 0 -6 19 -31 41 -55 36 -39 47 -45 80
-45 33 0 42 5 59 32 10 17 22 49 25 70 8 48 28 57 112 50 62 -4 63 -4 80 28
10 18 35 53 55 78 46 57 118 196 118 228 0 14 7 38 15 53 8 16 19 69 26 118
13 101 9 112 -53 191 -38 48 -141 122 -169 122 -31 0 -49 39 -49 107 0 104 30
142 75 93 10 -11 31 -20 46 -20 47 0 58 30 58 148 l0 103 56 125 c30 69 55
133 55 142 1 17 5 29 75 217 84 227 97 270 102 345 4 67 3 77 -16 98 -38 39
-64 29 -131 -50 -34 -40 -66 -73 -73 -73 -7 0 -22 20 -35 45 -20 39 -23 55
-18 116 3 38 17 101 32 139 31 85 43 222 24 280 -7 22 -39 64 -79 105 -72 73
-140 107 -238 117 -79 9 -99 0 -123 -55 l-21 -47 -20 23 c-10 13 -24 43 -30
65 -16 61 -38 104 -81 152 -38 43 -40 44 -88 38 -46 -5 -51 -4 -79 27 -27 30
-33 32 -73 27 -24 -3 -52 -9 -62 -13 -17 -6 -66 40 -232 221 -59 64 -59 63
-74 175 -16 122 -49 163 -84 108z m-1208 -311 c2 -67 -1 -86 -23 -132 -39 -82
-30 -145 21 -145 25 0 37 17 48 73 7 31 28 35 81 13 22 -10 41 -28 54 -55 26
-50 26 -73 1 -96 -23 -21 -25 -59 -5 -95 21 -36 19 -176 -4 -294 -24 -122 -46
-150 -129 -160 -49 -6 -55 -5 -81 21 -15 15 -36 51 -46 78 -34 92 -65 133
-120 155 -27 11 -77 40 -110 65 -33 24 -70 51 -82 60 -19 13 -23 26 -23 64 0
42 9 63 63 152 61 101 82 122 138 133 23 5 30 16 50 78 29 90 97 171 138 166
25 -3 26 -6 29 -81z m584 -27 c29 -6 64 -13 77 -16 35 -7 111 -87 111 -117 0
-13 -9 -36 -20 -50 -11 -14 -20 -31 -20 -38 0 -7 26 -41 58 -75 31 -35 75 -84
96 -109 22 -25 44 -44 50 -42 31 10 49 70 57 189 10 140 19 155 76 132 67 -29
101 -11 140 71 25 55 43 55 73 -2 18 -35 38 -55 72 -73 65 -35 84 -55 115
-117 26 -54 26 -56 19 -201 -12 -237 -20 -265 -76 -260 -19 2 -31 15 -50 53
-21 42 -30 50 -56 53 -28 3 -42 -7 -117 -82 -47 -48 -93 -86 -104 -86 -35 1
-68 29 -103 87 -28 46 -41 59 -64 61 -37 5 -82 -37 -89 -83 -5 -33 -71 -135
-88 -135 -5 0 -9 17 -9 39 0 56 -28 87 -85 94 -49 5 -91 36 -122 88 -21 35
-40 45 -130 69 -43 11 -86 28 -95 38 -27 27 -47 119 -52 241 -4 77 -2 112 6
117 7 4 16 -1 22 -11 6 -10 30 -40 53 -66 23 -27 57 -73 76 -101 42 -65 64
-85 78 -71 19 19 -1 74 -42 118 -32 34 -41 53 -46 93 -5 44 -2 57 23 98 37 60
78 104 98 104 8 0 39 -5 68 -10z m1186 -442 c19 -37 24 -65 25 -136 2 -89 1
-91 -29 -124 -18 -18 -43 -52 -57 -75 -15 -23 -35 -44 -46 -48 -13 -4 -25 -22
-33 -53 -8 -29 -19 -47 -28 -47 -21 0 -24 42 -6 70 11 17 17 57 19 147 3 83 9
133 19 153 8 17 21 51 28 77 14 53 44 91 68 86 10 -2 27 -24 40 -50z m416 -32
c25 -10 36 -23 41 -44 8 -39 18 -46 87 -61 77 -16 88 -34 88 -133 0 -86 -17
-118 -64 -118 -47 0 -54 -30 -31 -137 7 -28 4 -34 -19 -44 -37 -17 -43 -51
-16 -94 24 -39 24 -101 0 -130 -18 -21 -76 -19 -92 3 -27 38 -54 44 -98 22
l-40 -20 -53 56 c-53 57 -74 106 -76 182 -1 40 12 41 41 2 29 -39 65 -40 79
-2 7 17 8 82 5 177 -4 83 -3 186 1 230 l8 79 40 23 c47 27 55 27 99 9z m-3083
-106 c18 -24 18 -29 3 -98 l-15 -74 30 -61 c17 -34 40 -79 52 -99 30 -54 34
-104 14 -189 -22 -100 -49 -159 -72 -159 -40 0 -118 65 -130 108 -5 15 -8 117
-8 227 0 211 -2 198 54 328 23 54 42 58 72 17z m160 -10 c24 -13 44 -54 52
-103 6 -37 -20 -128 -44 -151 -13 -14 -68 41 -90 89 -16 37 -17 46 -5 99 17
73 40 91 87 66z m1182 -147 c24 -21 69 -56 100 -78 68 -49 82 -73 80 -139 0
-28 -2 -91 -3 -141 -1 -49 -7 -96 -12 -102 -6 -7 -27 -13 -48 -13 -47 0 -59
-15 -70 -82 -11 -72 -63 -210 -100 -269 -54 -82 -89 -76 -116 21 -10 35 -34
82 -60 117 -54 72 -59 97 -14 73 14 -7 23 -6 34 6 23 22 20 39 -9 52 -30 14
-33 55 -10 135 8 29 16 99 19 157 3 92 8 114 36 175 32 70 80 124 112 125 9 0
37 -17 61 -37z m866 -44 c35 -38 37 -98 6 -178 l-27 -69 21 -70 c25 -83 26
-111 5 -119 -20 -8 -61 32 -69 68 -16 73 -94 107 -129 57 -27 -38 -20 -65 19
-78 60 -20 65 -37 65 -201 0 -81 -3 -154 -6 -163 -9 -24 -28 -19 -57 14 -15
17 -34 30 -41 30 -22 0 -46 -29 -46 -55 0 -56 -20 -66 -81 -41 -38 15 -54 12
-86 -16 -16 -15 -29 -19 -48 -14 -34 9 -65 41 -65 68 0 12 -23 46 -56 80 -56
58 -56 60 -50 106 18 135 88 336 137 399 17 21 42 59 55 85 21 42 56 78 76 78
4 0 28 -18 53 -40 52 -45 46 -44 117 -28 41 9 65 23 105 60 58 54 73 58 102
27z m521 -2 c0 -22 -46 -67 -70 -67 -16 0 -12 12 15 53 29 42 55 49 55 14z
m-1948 -138 c63 -83 92 -109 129 -119 22 -6 46 -21 54 -34 19 -29 30 -89 20
-113 -4 -10 -8 -67 -10 -127 -3 -108 -3 -111 31 -178 28 -56 33 -72 23 -89 -9
-18 -16 -20 -47 -14 -21 4 -63 7 -96 7 -74 0 -102 -19 -128 -89 -27 -73 -55
-93 -133 -93 -54 0 -67 4 -100 30 -82 65 -157 29 -274 -129 -14 -18 -23 -23
-43 -18 -41 11 -135 87 -149 121 -7 17 -23 44 -36 59 -13 16 -23 34 -23 40 0
7 -16 37 -35 67 -38 59 -47 127 -20 150 22 18 214 3 240 -20 11 -9 40 -29 65
-43 25 -15 59 -40 75 -57 38 -40 81 -41 117 -2 32 34 36 47 42 153 3 52 14
107 26 138 11 29 20 61 20 72 0 12 16 37 36 57 20 20 51 59 69 88 18 28 38 55
43 58 6 3 16 23 23 44 12 37 36 72 50 72 4 0 18 -14 31 -31z m1916 -139 c4
-38 57 -158 112 -255 l23 -40 -36 -100 c-19 -55 -38 -119 -40 -141 -4 -39 -1
-45 45 -95 l50 -54 -6 -115 c-8 -139 -25 -254 -41 -276 -8 -12 -30 -17 -86
-17 l-75 -2 -71 53 c-84 62 -127 81 -208 93 -51 7 -65 5 -93 -11 -62 -37 -87
-24 -98 50 -3 25 -18 62 -32 83 -47 69 -40 166 16 230 17 20 54 22 84 6 18 -9
24 -8 35 7 7 10 13 28 13 40 0 11 10 37 23 55 49 73 96 177 112 249 17 82 48
131 98 157 18 9 57 38 87 65 59 52 83 57 88 18z m-310 -20 c34 -51 25 -100
-20 -100 -24 0 -38 30 -38 83 0 68 19 74 58 17z m-61 -201 c3 -65 -2 -85 -35
-169 -30 -75 -42 -95 -57 -95 -19 0 -20 7 -19 110 0 92 4 118 23 157 22 47 56
81 76 75 5 -2 11 -37 12 -78z m1121 9 c16 -16 15 -89 -3 -112 -22 -30 -55
-138 -63 -208 -6 -53 -10 -63 -27 -66 -12 -2 -32 9 -50 28 -36 38 -58 38 -102
0 -40 -36 -45 -36 -78 -7 -29 25 -54 105 -56 178 -2 59 3 66 52 79 55 15 77 5
95 -41 22 -53 54 -54 85 -1 34 56 59 80 90 87 29 7 48 42 34 64 -9 15 8 14 23
-1z m-464 -340 c7 -13 17 -43 20 -67 4 -24 22 -72 42 -106 26 -47 36 -80 41
-129 6 -63 5 -66 -19 -75 -14 -5 -52 -11 -84 -13 l-59 -3 1 180 c0 216 17 277
58 213z m-3315 -45 c12 -14 24 -37 27 -49 9 -35 -16 -165 -37 -195 -10 -14
-23 -46 -29 -71 -11 -41 -9 -54 14 -121 14 -42 26 -86 26 -100 0 -33 -23 -51
-57 -44 -16 4 -50 10 -76 15 -27 5 -56 16 -64 25 -21 20 -19 87 3 129 17 32
16 61 -6 163 -6 28 -8 60 -5 72 6 26 52 53 88 53 23 0 25 4 29 59 6 91 45 119
87 64z m3611 -170 c0 -135 -21 -178 -55 -113 -25 47 -23 111 4 148 37 52 51
43 51 -35z m-1824 10 c-10 -10 -19 5 -10 18 6 11 8 11 12 0 2 -7 1 -15 -2 -18z
m-451 -110 c16 -29 50 -75 74 -103 67 -77 87 -158 60 -241 -32 -93 -105 -93
-124 1 -13 67 -36 176 -57 261 -21 86 -19 144 5 136 6 -2 25 -26 42 -54z m907
40 c21 -25 29 -87 14 -108 -11 -16 -15 -14 -39 15 -26 30 -37 87 -20 103 11
12 29 8 45 -10z m-1354 -90 c2 -24 -5 -45 -28 -76 -40 -56 -31 -83 44 -131 30
-19 57 -43 59 -53 12 -40 17 -251 8 -303 -6 -35 -6 -75 1 -109 10 -57 0 -101
-24 -101 -6 0 -29 -12 -50 -26 l-37 -26 -33 20 c-18 11 -47 36 -64 56 -27 30
-39 36 -92 42 -34 3 -69 12 -79 19 -16 12 -15 16 1 69 10 31 15 67 12 79 -4
12 -11 60 -16 107 -8 77 -12 88 -41 114 -27 23 -38 27 -68 22 -43 -6 -111 -73
-111 -108 0 -13 -9 -42 -20 -66 -16 -35 -24 -43 -42 -40 -23 3 -23 5 -22 138
1 161 8 220 36 282 24 55 44 63 95 37 52 -26 64 -24 100 18 l32 38 43 -23 c56
-29 86 -28 129 4 50 38 90 54 129 51 32 -2 35 -5 38 -34z m-745 15 c21 -16 77
-172 77 -215 0 -58 -56 -85 -84 -40 -8 12 -17 38 -21 57 -4 19 -18 61 -31 93
-23 54 -23 59 -9 87 16 32 40 38 68 18z m1007 -72 c-12 -12 -24 39 -15 61 6
14 10 11 16 -17 4 -19 4 -39 -1 -44z m910 59 c12 -14 10 -56 -6 -195 -7 -66
-17 -80 -55 -80 -41 0 -57 32 -71 134 -13 101 -7 113 67 140 51 19 50 19 65 1z
m652 -124 c13 -11 51 -35 83 -54 33 -20 78 -54 100 -77 35 -36 40 -48 45 -98
l5 -57 105 0 c102 0 107 -1 170 -36 57 -31 68 -43 94 -94 26 -54 27 -62 14
-85 -11 -20 -22 -26 -58 -28 -73 -4 -87 -10 -131 -57 -52 -55 -97 -62 -126
-18 -10 14 -32 41 -50 60 -26 27 -35 32 -55 24 -43 -15 -50 -44 -44 -191 7
-160 -3 -247 -29 -267 -11 -7 -40 -13 -66 -13 -32 0 -63 -9 -102 -30 -90 -48
-178 -38 -179 21 -1 39 20 161 36 209 25 72 46 213 53 350 l6 128 -26 26 c-52
52 -87 26 -87 -66 -1 -29 -7 -71 -15 -93 -8 -22 -15 -50 -15 -63 0 -12 -7 -39
-16 -60 -47 -109 -84 -216 -84 -248 0 -29 -36 -64 -65 -64 -14 0 -25 -4 -25
-8 0 -5 -20 -31 -44 -60 -24 -28 -47 -65 -51 -82 -4 -17 -18 -38 -32 -47 -24
-16 -26 -16 -39 2 -15 21 -10 72 11 115 7 14 21 64 31 112 l18 88 -23 62 c-13
35 -29 89 -36 121 -8 35 -23 69 -38 85 -26 28 -97 174 -97 200 0 21 30 52 50
52 21 0 116 -102 152 -163 24 -41 31 -47 61 -47 29 0 37 -5 47 -29 6 -16 20
-37 31 -47 18 -16 20 -16 44 6 21 19 25 33 25 76 0 49 -2 55 -30 69 -25 13
-30 22 -30 52 0 20 4 50 10 67 5 17 14 49 20 71 5 22 16 49 24 60 13 19 14 19
41 -1 91 -64 96 -65 116 -26 35 68 92 141 122 156 41 20 49 20 79 -3z m-344
-54 c2 -10 -3 -17 -12 -17 -9 0 -16 2 -16 4 0 2 -3 12 -6 21 -5 13 -2 16 12
13 10 -2 20 -11 22 -21z m-584 -53 c14 -31 26 -69 26 -84 0 -53 -52 -77 -96
-46 -18 14 -19 16 -1 64 9 27 17 63 17 79 0 30 7 43 21 43 4 0 19 -25 33 -56z
m1587 35 c17 -32 17 -118 0 -128 -17 -11 -42 -4 -58 17 -16 20 -17 104 -1 120
19 19 46 14 59 -9z m-2223 -166 c60 -32 68 -49 53 -113 -6 -25 -11 -61 -11
-80 0 -19 -12 -55 -26 -80 -14 -25 -35 -69 -46 -97 -10 -29 -23 -55 -28 -58
-32 -20 -47 142 -30 315 12 125 15 140 27 140 4 0 32 -12 61 -27z m477 -108
c14 -13 25 -36 25 -50 0 -45 51 -129 93 -152 12 -7 41 -12 64 -13 33 0 46 -6
67 -30 26 -32 42 -89 32 -115 -11 -29 -51 -16 -96 30 -24 25 -52 45 -61 45 -9
0 -35 7 -59 15 -41 14 -42 14 -69 -13 -18 -17 -33 -50 -44 -92 -26 -100 -75
-189 -127 -228 -55 -43 -90 -88 -90 -120 0 -13 -6 -36 -14 -50 -8 -15 -17 -35
-20 -45 -4 -14 -14 -17 -38 -15 -30 3 -33 7 -57 78 -14 41 -31 79 -38 83 -18
11 -16 56 2 64 9 3 24 -2 35 -12 32 -29 62 -16 90 40 18 34 38 55 65 70 44 22
85 84 85 128 0 15 6 40 14 55 21 41 46 172 46 242 0 53 3 64 26 85 33 31 39
31 69 0z m-1397 -85 c40 -37 21 -69 -33 -56 -25 6 -43 45 -30 65 10 17 39 13
63 -9z m3347 -51 c91 -48 104 -90 64 -199 -11 -30 -30 -82 -41 -115 -15 -47
-31 -70 -71 -107 -31 -28 -57 -62 -66 -90 -20 -53 -50 -62 -90 -25 -69 64
-121 49 -121 -37 0 -12 -7 -31 -15 -42 -15 -19 -15 -18 -38 7 -19 21 -27 50
-42 151 -17 117 -17 126 -1 158 23 45 115 130 141 130 11 0 34 -9 50 -20 42
-28 59 -25 105 16 38 35 40 39 40 96 0 62 12 98 33 98 7 0 30 -9 52 -21z
m-3551 -45 c12 -11 16 -36 16 -90 0 -68 2 -75 23 -83 24 -10 56 5 67 30 18 39
27 53 37 56 5 2 35 -16 66 -39 30 -24 63 -47 72 -53 19 -12 59 -158 50 -186
-8 -25 -36 -24 -70 3 -57 44 -120 17 -132 -58 -7 -48 -19 -64 -47 -64 -42 0
-97 85 -117 181 -6 29 -20 66 -30 83 -32 52 -21 191 17 229 12 12 31 8 48 -9z
m2003 -241 c14 -35 14 -44 -2 -110 -22 -86 -50 -121 -81 -99 -20 15 -23 65 -9
171 11 82 64 103 92 38z m-1222 -125 c2 -13 6 -43 7 -68 3 -46 2 -45 78 -80
18 -9 24 -33 16 -65 -7 -27 -111 -95 -146 -95 -22 0 -35 13 -95 93 -36 49 -45
94 -20 103 8 3 23 21 34 39 18 32 94 95 112 95 5 0 11 -10 14 -22z m896 -4
c57 -19 91 -58 90 -106 0 -18 4 -89 10 -158 8 -90 8 -133 0 -152 -15 -39 -44
-36 -69 6 -15 26 -30 37 -56 42 -74 13 -107 109 -86 245 11 68 39 139 55 139
4 0 29 -7 56 -16z m859 -344 c6 -11 13 -110 15 -223 5 -187 4 -206 -13 -227
l-18 -22 -62 31 c-34 17 -71 31 -82 31 -33 0 -60 35 -60 79 0 23 -6 44 -16 52
-23 19 -54 84 -54 113 0 34 14 40 50 21 50 -26 69 -17 112 55 66 109 104 135
128 90z m-1380 -15 c7 -9 19 -72 25 -141 10 -102 16 -130 33 -146 13 -13 27
-18 40 -14 27 9 61 84 73 160 19 117 39 96 84 -89 50 -204 81 -241 143 -171
28 32 35 53 58 172 9 50 86 35 138 -26 53 -63 28 -197 -53 -286 -35 -38 -55
-72 -71 -119 -29 -86 -53 -105 -135 -105 l-61 0 -77 66 c-65 56 -84 81 -126
160 -27 52 -54 109 -61 128 -12 38 -30 49 -65 40 -55 -14 -59 95 -9 272 8 28
14 62 14 76 0 40 26 52 50 23z m-540 -25 c51 -33 102 -40 137 -22 12 7 37 12
55 12 18 1 44 7 58 15 53 30 100 4 100 -55 0 -38 -35 -169 -59 -220 -11 -25
-21 -57 -21 -72 0 -18 -13 -43 -35 -67 -19 -21 -35 -45 -35 -52 0 -8 -7 -25
-16 -37 -22 -31 -67 -28 -125 9 -41 26 -50 38 -63 84 -9 29 -20 93 -26 141 -5
49 -16 132 -24 184 -14 88 -13 110 1 110 4 0 27 -14 53 -30z"/>
<path d="M1907 3338 c-24 -19 -47 -81 -40 -109 12 -51 63 -67 63 -19 0 29 9
41 54 73 19 14 19 15 -7 41 -29 29 -45 32 -70 14z"/>
</g>
</svg>
