<?xml version="1.0" standalone="no"?>
<!DOCTYPE svg PUBLIC "-//W3C//DTD SVG 20010904//EN"
 "http://www.w3.org/TR/2001/REC-SVG-20010904/DTD/svg10.dtd">
<svg version="1.0" xmlns="http://www.w3.org/2000/svg"
 width="300.000000pt" height="400.000000pt" viewBox="0 0 300.000000 400.000000"
 preserveAspectRatio="xMidYMid meet">
<metadata>
Created by potrace 1.10, written by Peter Selinger 2001-2011
</metadata>
<g transform="translate(0.000000,400.000000) scale(0.100000,-0.100000)"
fill="#000000" stroke="none">
<path d="M245 3919 c104 -87 324 -276 681 -585 493 -427 569 -492 572 -483 2
5 -11 21 -29 36 -19 16 -135 116 -258 223 -123 107 -269 232 -323 277 -162
134 -240 203 -290 257 -26 28 -48 47 -48 43 0 -5 -14 7 -32 27 -17 19 -35 33
-39 31 -4 -3 -17 7 -29 22 -12 16 -25 28 -29 28 -4 0 -60 45 -125 100 -65 55
-125 102 -134 104 -9 2 29 -34 83 -80z"/>
<path d="M2675 3995 c-5 -2 -174 -56 -375 -121 -201 -64 -368 -120 -373 -123
-4 -4 28 -83 71 -176 74 -158 81 -168 108 -170 36 -3 174 35 174 47 0 5 4 6
10 3 11 -7 241 52 250 63 3 4 10 7 15 7 38 1 104 18 100 26 -6 9 21 13 59 9
12 -1 16 2 11 11 -6 9 -2 11 13 7 14 -4 20 -2 16 4 -5 7 2 9 20 4 19 -5 26 -3
21 4 -5 7 2 9 21 4 19 -5 25 -4 20 5 -6 9 0 10 20 5 20 -5 25 -4 19 6 -5 9 -2
10 11 6 24 -7 107 17 112 32 2 7 -1 12 -7 12 -11 0 -316 -83 -704 -191 -103
-28 -189 -50 -191 -48 -7 8 -146 312 -143 314 10 7 759 248 791 255 l41 8 -50
0 c-27 0 -54 -1 -60 -3z"/>
<path d="M807 3939 c-71 -28 -126 -53 -124 -55 5 -6 237 85 252 97 14 13 10
12 -128 -42z"/>
<path d="M478 3862 l53 -49 44 20 c55 26 53 33 -3 11 l-41 -17 -53 43 -53 42
53 -50z"/>
<path d="M1841 3905 c0 -5 15 -39 34 -75 19 -36 34 -60 34 -55 0 6 -15 39 -34
75 -19 36 -34 61 -34 55z"/>
<path d="M585 3761 c22 -23 49 -47 60 -53 11 -6 18 -9 15 -6 -3 2 -30 26 -60
53 -54 49 -54 49 -15 6z"/>
<path d="M152 3673 c-84 -36 -151 -67 -149 -69 2 -2 77 28 168 66 90 38 157
69 149 69 -8 0 -84 -30 -168 -66z"/>
<path d="M1710 3690 c-80 -27 -198 -65 -263 -85 -65 -21 -116 -39 -114 -42 5
-5 68 14 340 104 171 56 219 75 190 72 -5 0 -73 -22 -153 -49z"/>
<path d="M1120 3500 c-80 -26 -140 -48 -135 -49 6 0 78 21 160 48 83 27 143
49 135 49 -8 0 -80 -21 -160 -48z"/>
<path d="M910 3467 c0 -7 538 -497 546 -497 7 0 -89 90 -311 289 -93 84 -177
161 -185 170 -20 22 -50 45 -50 38z"/>
<path d="M575 3325 c-88 -29 -155 -53 -150 -54 6 0 87 24 180 54 94 30 161 54
150 54 -11 -1 -92 -25 -180 -54z"/>
<path d="M1865 3344 c-49 -13 -118 -31 -153 -40 -34 -9 -61 -19 -58 -21 4 -5
204 45 286 71 74 23 22 17 -75 -10z"/>
<path d="M1840 3254 c-81 -33 -170 -93 -170 -116 0 -8 -53 -96 -76 -126 -1 -2
-24 -9 -51 -16 l-48 -13 35 -8 c19 -4 40 -11 46 -16 13 -10 127 159 120 178
-3 7 0 13 6 13 6 0 25 11 43 24 58 45 122 69 168 64 74 -9 211 -84 273 -151
30 -32 54 -64 54 -71 0 -7 11 -33 24 -58 24 -45 31 -98 14 -98 -7 0 -7 -4 0
-13 7 -8 7 -29 1 -61 -5 -26 -6 -52 -3 -57 3 -5 -2 -9 -11 -9 -9 0 -13 -5 -10
-11 10 -15 -31 -55 -82 -80 -24 -12 -42 -24 -39 -26 11 -12 99 33 126 63 39
45 53 99 55 211 1 51 3 95 6 98 3 2 23 7 45 10 21 3 45 8 52 11 15 4 569 124
577 124 3 0 5 5 5 11 0 5 -4 8 -8 5 -5 -3 -62 -16 -128 -30 -65 -14 -215 -46
-333 -71 -118 -25 -222 -45 -231 -45 -10 0 -27 23 -45 60 -16 34 -35 66 -42
72 -7 5 -10 14 -8 19 3 4 -5 6 -17 4 -13 -3 -31 3 -43 15 -43 40 -168 93 -230
96 -33 2 -67 1 -75 -2z"/>
<path d="M1855 3210 c3 -5 24 -11 48 -15 51 -9 83 -24 52 -25 -11 -1 -14 -4
-7 -7 7 -3 19 1 27 7 12 10 15 10 15 0 0 -7 7 -10 15 -6 8 3 15 1 15 -4 0 -6
5 -10 10 -10 23 0 7 19 -25 30 -19 6 -33 15 -31 19 3 4 -9 5 -26 3 -17 -3 -28
-1 -25 4 3 5 -13 10 -34 10 -21 1 -37 -2 -34 -6z"/>
<path d="M1856 3160 c6 -6 18 -12 25 -14 8 -1 43 -16 79 -34 36 -17 79 -33 95
-36 17 -2 24 -1 18 1 -7 2 -13 8 -13 13 0 4 -8 10 -17 14 -10 3 -24 9 -32 12
-9 4 -11 2 -6 -6 4 -6 -10 0 -32 14 -22 15 -50 28 -62 31 -13 2 -32 7 -44 11
-17 5 -19 3 -11 -6z"/>
<path d="M1045 3131 c-6 -5 -154 -49 -330 -97 -176 -48 -322 -88 -324 -90 -6
-6 29 -54 40 -54 5 0 19 -9 30 -19 11 -10 49 -32 84 -47 67 -30 77 -40 48 -47
-10 -3 5 -5 33 -5 29 1 71 -8 100 -21 29 -12 41 -15 30 -6 -11 8 -23 15 -28
15 -4 0 -8 4 -8 8 0 8 149 44 161 39 3 -1 12 3 20 9 23 19 87 26 111 13 21
-11 22 -11 9 4 -11 14 -11 17 0 21 33 9 109 27 174 42 39 9 78 20 88 25 10 6
23 7 29 3 6 -4 8 -3 4 4 -8 13 -85 7 -146 -12 -25 -8 -148 -40 -275 -71 l-230
-57 -128 67 c-70 37 -125 70 -122 75 3 5 20 11 38 15 17 4 61 15 97 25 36 11
172 49 303 85 l238 67 67 -54 c109 -89 146 -114 140 -98 -2 8 -46 50 -96 92
-91 77 -131 95 -157 69z"/>
<path d="M1859 3127 c7 -9 17 -14 22 -11 8 5 12 -9 7 -22 -3 -4 109 -63 121
-64 2 0 -2 7 -9 15 -8 9 -9 15 -2 15 6 0 14 -5 17 -11 4 -6 19 -10 33 -9 43 3
66 0 59 -7 -9 -9 13 -34 24 -27 5 3 6 -3 2 -12 -3 -10 -2 -15 3 -12 5 4 7 -13
5 -39 -2 -32 0 -43 8 -39 6 4 11 1 11 -8 0 -8 9 -21 19 -28 17 -12 18 -15 4
-33 -15 -20 -15 -20 -9 1 4 14 2 21 -7 21 -15 0 -11 -54 6 -64 6 -4 7 -1 2 7
-5 9 -4 11 3 6 9 -5 7 -14 -4 -31 -14 -22 -14 -23 5 -18 12 3 21 13 21 22 0 9
6 23 13 30 10 11 9 13 -6 8 -20 -7 -16 3 12 37 11 14 12 17 2 11 -11 -6 -13
-3 -9 13 4 13 0 23 -9 26 -20 8 -23 8 -23 -5 0 -5 5 -7 10 -4 6 3 10 2 10 -4
0 -5 -4 -12 -9 -15 -14 -9 -31 42 -31 93 0 60 -21 81 -87 88 -26 2 -49 9 -51
14 -2 5 -11 5 -21 -1 -14 -7 -24 -3 -41 15 -13 14 -31 25 -41 25 -9 0 -19 4
-21 9 -1 4 -14 12 -28 16 -22 7 -23 6 -11 -8z"/>
<path d="M1800 3102 c-13 -14 -12 -15 4 -9 16 6 17 5 6 -8 -10 -12 -10 -15 3
-15 8 0 17 9 20 20 3 11 1 18 -3 15 -5 -3 -10 -1 -12 4 -1 5 -10 2 -18 -7z"/>
<path d="M70 3097 c0 -7 132 -79 136 -74 2 2 -28 20 -66 41 -39 20 -70 35 -70
33z"/>
<path d="M2163 3033 c8 -16 13 -46 12 -68 -2 -27 -1 -30 3 -10 4 27 5 28 12
10 8 -19 9 -18 9 4 1 13 -8 39 -20 57 -25 41 -35 45 -16 7z"/>
<path d="M1779 3028 c-20 -17 -52 -68 -46 -75 5 -4 8 -2 53 55 26 32 22 43 -7
20z"/>
<path d="M1920 3025 c10 -12 10 -15 -4 -15 -13 0 -13 -3 4 -20 25 -25 37 -25
43 -2 3 10 5 6 6 -10 0 -16 6 -28 12 -28 7 0 9 10 7 25 -7 35 9 21 17 -15 5
-21 13 -30 26 -30 42 0 12 49 -56 91 -38 24 -74 26 -55 4z"/>
<path d="M2030 3014 c0 -2 12 -11 28 -19 15 -9 18 -13 7 -10 -19 6 -19 5 1
-17 12 -13 24 -35 28 -50 7 -30 37 -30 31 0 -2 9 -4 21 -4 25 -1 5 -6 5 -13 1
-7 -4 -8 -3 -4 5 11 18 -19 58 -48 63 -14 3 -26 4 -26 2z"/>
<path d="M1638 2952 c-15 -24 -25 -53 -25 -78 0 -21 2 -29 4 -17 3 14 9 20 19
16 7 -3 11 -9 8 -14 -3 -5 2 -9 11 -9 21 0 31 30 14 41 -8 5 -22 7 -32 5 -10
-2 -17 0 -15 6 2 5 8 10 13 10 6 0 16 5 24 11 12 10 14 9 9 -5 -4 -10 -2 -15
7 -14 19 3 32 16 16 16 -7 0 -10 4 -7 9 7 11 -13 9 -31 -2 -18 -11 -16 4 3 31
9 13 14 25 12 28 -3 2 -16 -13 -30 -34z"/>
<path d="M1533 2939 c-18 -7 -23 -16 -23 -45 l0 -37 31 39 c23 28 30 33 27 17
-4 -16 -2 -20 8 -16 27 10 3 -27 -27 -43 -24 -12 -29 -20 -28 -52 l1 -37 9 33
c5 17 16 32 23 32 8 0 17 7 20 16 3 8 10 13 15 9 5 -3 9 8 9 24 -1 41 -35 72
-65 60z"/>
<path d="M235 2910 c-38 -10 -108 -27 -155 -39 -52 -12 -67 -18 -38 -14 55 6
313 71 283 71 -11 0 -51 -8 -90 -18z"/>
<path d="M1480 2822 c-4 -9 -127 -38 -345 -82 -187 -37 -375 -76 -418 -85
-200 -42 -199 -42 -312 5 -227 94 -398 161 -401 157 -5 -5 132 -67 148 -67 8
0 18 -4 23 -9 6 -5 75 -36 155 -69 188 -77 184 -75 191 -74 4 1 40 8 80 17 41
9 97 20 124 25 28 5 111 21 185 35 74 15 155 31 180 35 25 5 99 21 165 35 66
14 141 28 168 32 l47 5 2 -38 c1 -22 1 -51 0 -66 -1 -15 2 -29 7 -32 13 -8 35
50 25 66 -5 7 -11 38 -14 68 -3 30 -8 49 -10 42z"/>
<path d="M1643 2780 c-6 -23 -14 -25 -31 -8 -13 13 -12 14 -32 -64 -11 -42
-10 -51 6 -75 10 -16 19 -32 19 -37 0 -5 11 -11 24 -13 13 -2 31 -7 40 -12 13
-8 6 -12 -31 -22 -27 -7 -48 -19 -48 -26 0 -11 5 -11 20 -3 11 6 25 8 30 5 13
-8 13 -35 0 -35 -6 0 6 -15 26 -32 39 -35 80 -44 89 -20 4 11 -1 13 -20 9 -30
-5 -55 15 -55 44 0 10 -4 19 -10 19 -28 0 -3 30 44 53 90 44 102 38 76 -39
-10 -29 -21 -68 -24 -85 -2 -18 -11 -36 -18 -41 -10 -7 -9 -9 4 -4 10 3 18 -1
21 -12 3 -9 5 8 6 38 2 78 9 84 54 45 l39 -34 -19 -25 c-10 -14 -23 -26 -29
-26 -14 0 -24 -23 -24 -51 0 -11 -7 -22 -16 -26 -12 -4 -13 -8 -3 -14 19 -11
38 8 32 34 -4 22 -4 22 11 2 9 -11 13 -26 10 -35 -4 -8 -7 -23 -8 -32 0 -9 -4
-14 -9 -11 -4 2 -5 -7 -1 -21 4 -16 2 -26 -5 -26 -6 0 -11 7 -11 15 0 8 -5 15
-11 15 -5 0 -7 -4 -4 -10 3 -5 1 -10 -6 -10 -9 0 -9 -4 1 -15 13 -15 5 -39
-11 -30 -5 4 -9 -2 -9 -11 0 -16 -1 -16 -15 2 -13 16 -14 16 -9 2 3 -10 1 -18
-5 -18 -6 0 -18 -14 -26 -30 -9 -18 -21 -28 -27 -24 -7 4 -8 3 -4 -4 4 -6 -9
-35 -29 -63 -39 -57 -42 -67 -20 -75 26 -11 16 -24 -15 -20 -26 3 -33 -2 -46
-25 -8 -16 -21 -29 -29 -29 -8 0 -15 -4 -15 -9 0 -5 -3 -17 -7 -27 -4 -12 -3
-15 5 -10 8 5 10 1 5 -11 -6 -17 -5 -17 15 0 11 11 18 25 15 34 -4 10 0 14 13
11 15 -2 18 2 16 24 -3 25 -1 27 27 23 17 -2 31 1 31 6 0 5 7 9 15 9 8 0 14 8
13 18 -3 33 2 52 13 52 6 0 9 -7 5 -15 -3 -8 -2 -15 3 -15 10 0 21 73 12 80
-3 3 -7 11 -9 18 -2 9 4 11 18 7 16 -5 20 -2 21 17 1 22 1 22 13 -5 7 -15 15
-24 19 -21 4 4 7 3 7 -3 0 -6 6 -13 14 -16 9 -4 12 0 9 13 -3 10 0 27 6 37 10
15 11 12 8 -17 -4 -40 -54 -150 -68 -150 -5 0 -9 -4 -9 -9 0 -5 11 -8 25 -8
13 0 22 3 19 8 -3 5 1 9 8 9 9 0 9 3 -2 10 -10 6 -11 10 -2 10 6 0 12 7 12 15
0 14 11 19 38 16 6 -1 12 3 12 9 0 5 -9 10 -20 10 -19 0 -28 15 -12 22 12 5
38 62 38 83 -1 16 -7 19 -31 17 -16 -2 -35 -8 -42 -13 -18 -15 -26 7 -11 31
13 20 33 26 41 13 2 -5 2 -3 1 4 -5 22 13 23 31 3 10 -11 15 -20 10 -20 -4 0
-2 -7 5 -15 6 -8 9 -19 5 -25 -3 -5 -1 -10 4 -10 11 0 15 14 11 39 -1 8 5 20
13 26 8 6 16 17 18 25 4 25 -13 90 -23 90 -6 0 -8 7 -5 15 4 8 2 17 -3 20 -6
4 -10 0 -10 -7 -1 -7 -8 3 -16 22 -22 50 -2 73 104 124 105 51 110 60 51 84
-33 14 -34 14 -16 -5 18 -20 23 -38 9 -29 -5 3 -19 -6 -30 -19 -12 -14 -31
-25 -43 -25 -34 0 -90 31 -101 56 -15 33 2 90 26 87 11 0 15 4 12 13 -4 11 1
10 21 -3 14 -10 33 -18 42 -18 45 -4 52 -6 46 -15 -4 -7 -12 -7 -25 0 -24 13
-40 12 -18 -1 10 -5 15 -17 12 -27 -5 -14 -4 -15 5 -2 6 8 11 11 11 6 0 -16
30 17 30 34 0 17 -70 46 -99 41 -8 -1 -10 2 -5 10 5 9 2 10 -12 5 -41 -17 -50
-17 -68 3 -11 12 -14 21 -9 21 6 0 13 9 16 19 3 14 1 18 -10 14 -12 -5 -14 -1
-8 15 4 16 2 22 -9 22 -15 0 -42 38 -38 52 2 6 -61 28 -81 28 -5 0 -11 -9 -14
-20z m37 -11 c0 -6 7 -9 15 -5 8 3 15 0 15 -6 0 -6 8 -17 18 -25 16 -13 15
-14 -6 -9 -48 10 -72 -23 -33 -44 25 -13 53 -14 33 -1 -11 7 -11 9 1 14 8 3
23 -1 34 -9 17 -13 17 -14 -2 -7 -18 6 -18 4 4 -20 12 -14 20 -30 17 -35 -10
-17 -97 -46 -104 -36 -4 5 -14 10 -22 12 -31 7 -60 45 -60 80 0 27 8 42 37 68
38 35 53 42 53 23z m202 -544 c5 -23 -7 -45 -24 -45 -4 0 -8 5 -8 11 0 5 4 8
8 5 4 -2 8 4 8 15 0 10 -4 19 -8 19 -4 0 -8 10 -8 21 0 17 3 19 14 10 8 -6 16
-22 18 -36z"/>
<path d="M2505 2609 c-165 -27 -326 -52 -357 -55 -38 -5 -58 -11 -58 -20 0 -7
-10 -20 -22 -28 -31 -22 -24 -22 234 19 123 19 232 36 243 38 14 1 25 -10 43
-47 12 -26 21 -51 18 -53 -3 -3 1 -12 9 -20 18 -18 114 -7 122 14 3 8 1 33 -5
56 -9 33 -10 35 -7 8 6 -39 -8 -61 -37 -61 -18 0 -20 5 -14 31 3 17 6 44 6 60
0 20 5 29 17 29 9 0 25 8 35 17 14 13 21 14 26 5 9 -13 52 -5 52 10 0 5 5 6
10 3 7 -4 6 -13 -1 -27 -6 -12 -9 -43 -7 -70 5 -47 4 -49 -16 -44 -12 3 -24 6
-28 6 -3 0 -9 8 -12 18 -2 9 -4 4 -3 -13 2 -27 5 -30 33 -29 l31 2 12 -152
c12 -155 36 -432 47 -543 l6 -63 -55 0 -54 0 -8 83 c-4 45 -8 114 -9 154 0 39
-4 67 -8 61 -3 -7 -8 2 -10 18 -2 16 -10 30 -19 32 -13 2 -15 -4 -8 -45 12
-70 25 -243 18 -243 -16 0 -43 133 -44 214 -1 88 -1 90 -28 99 -15 5 -27 13
-27 18 0 5 -7 9 -16 9 -8 0 -12 -4 -9 -10 3 -5 -1 -10 -9 -10 -9 0 -15 -3 -15
-7 4 -22 -3 -25 -16 -7 -8 10 -15 15 -15 9 0 -5 -12 -11 -26 -11 -17 -1 -24 2
-20 11 3 9 -2 11 -17 8 -18 -4 -19 -3 -7 6 13 9 13 12 1 20 -11 7 -10 10 5 14
29 7 -126 6 -174 -1 -42 -7 -42 -7 -27 -29 9 -13 24 -23 34 -23 40 0 211 -141
211 -175 0 -11 -5 -15 -15 -12 -8 4 -17 2 -20 -4 -4 -5 -11 -7 -16 -4 -5 4 -9
-3 -9 -14 0 -14 -6 -21 -20 -21 -16 0 -19 5 -16 25 3 13 7 29 11 35 8 14 -8
13 -22 -1 -6 -6 -25 -13 -42 -15 -25 -3 -31 0 -31 16 0 11 -5 20 -11 20 -6 0
-9 -6 -6 -14 3 -8 0 -20 -8 -26 -10 -8 -14 -8 -18 2 -2 7 -8 9 -13 5 -13 -12
17 -27 56 -27 35 -1 35 -1 11 -14 -14 -8 -32 -11 -40 -8 -9 3 -12 1 -7 -7 5
-8 23 -10 50 -7 27 3 50 0 60 -7 16 -12 16 -15 -1 -45 -17 -31 -33 -42 -33
-23 0 5 -3 18 -6 28 -4 13 -3 15 4 4 6 -8 12 -9 16 -3 6 10 -34 46 -42 38 -8
-9 20 -86 32 -86 14 0 74 68 95 108 6 12 15 22 19 22 4 0 40 -25 81 -55 41
-30 83 -55 94 -55 11 0 18 -2 15 -5 -3 -3 10 -21 28 -40 32 -34 34 -35 114
-35 l82 0 -6 58 c-3 31 -15 174 -26 317 -12 143 -27 336 -35 428 -8 92 -15
172 -15 177 0 13 4 14 -335 -41z m313 26 c-7 -7 -237 -45 -268 -44 -38 1 -12
8 102 29 102 18 176 25 166 15z m-164 -122 c9 -80 -6 -82 -39 -7 -14 31 -25
58 -25 60 0 2 50 10 56 9 1 0 4 -28 8 -62z m-204 -431 c0 -37 88 -62 149 -42
30 9 43 10 60 0 22 -11 22 -12 4 -25 -11 -9 -13 -14 -5 -15 8 0 10 -5 6 -12
-5 -7 -7 -29 -5 -49 2 -35 1 -36 -38 -43 -23 -3 -41 -11 -41 -16 0 -25 -18 -6
-24 25 -5 24 -15 39 -34 49 l-27 14 40 8 c22 4 47 7 54 5 12 -2 13 0 2 12 -9
11 -20 13 -40 7 -35 -10 -74 8 -124 55 -21 19 -37 37 -37 40 0 3 14 5 30 5 22
0 30 -5 30 -18z m230 -231 c0 -16 3 -36 6 -44 3 -9 -3 -16 -17 -20 -28 -7 -46
2 -28 14 13 8 6 11 -17 8 -11 -1 -24 25 -24 49 0 19 5 22 40 22 38 0 40 -2 40
-29z"/>
<path d="M2620 1844 c0 -8 9 -14 20 -14 11 0 20 6 20 13 0 7 -9 13 -20 14 -11
1 -20 -4 -20 -13z"/>
<path d="M1434 2602 c-11 -8 -16 -112 -5 -112 4 0 16 7 27 15 19 14 19 14 -1
15 -15 0 -17 2 -6 9 11 7 11 9 0 14 -8 3 -4 6 9 6 12 1 22 5 22 11 0 5 -7 7
-16 3 -13 -5 -15 -2 -10 15 7 22 -4 35 -20 24z"/>
<path d="M2068 2589 c-10 -5 -18 -7 -18 -3 0 3 -7 1 -15 -6 -8 -7 -15 -17 -15
-23 0 -6 6 -3 13 8 18 24 32 3 17 -26 -7 -11 -10 -23 -7 -25 2 -2 9 8 16 24 8
15 17 35 22 45 11 20 10 20 -13 6z"/>
<path d="M897 2555 c-27 -7 -52 -17 -55 -21 -4 -4 1 -4 10 -1 9 3 33 9 52 13
20 3 39 10 42 15 3 5 4 9 2 8 -2 0 -25 -7 -51 -14z"/>
<path d="M1309 2493 c-13 -15 -12 -16 9 -11 12 4 20 3 17 -2 -2 -4 -18 -10
-34 -13 -23 -5 -28 -10 -24 -26 3 -13 10 -18 21 -14 11 5 13 3 7 -7 -6 -10 -4
-12 8 -7 16 6 21 -3 18 -31 -2 -10 24 -11 49 -2 3 2 9 2 13 1 5 -1 6 3 2 9 -4
6 -14 9 -22 8 -9 -2 -18 3 -21 10 -2 8 2 12 13 10 14 -2 18 4 20 28 1 23 -2
31 -11 27 -8 -3 -13 -8 -12 -11 3 -28 -3 -34 -16 -16 -8 11 -10 21 -5 25 11 6
1 39 -11 39 -4 0 -14 -8 -21 -17z m31 -53 c6 -11 7 -20 2 -20 -5 0 -19 9 -32
20 -23 20 -23 20 -2 20 12 0 26 -9 32 -20z"/>
<path d="M1520 2495 c-6 -8 -9 -18 -7 -23 8 -11 -4 -26 -33 -40 -14 -6 -17
-11 -8 -9 9 1 17 -2 17 -8 0 -5 -8 -10 -18 -9 -13 0 -17 -4 -13 -15 5 -14 4
-14 -13 -1 -17 14 -18 13 -12 -25 19 -112 20 -148 6 -143 -8 3 -13 11 -12 17
2 6 -2 11 -7 11 -5 0 -10 4 -10 10 0 5 8 7 18 3 14 -5 15 -3 5 8 -7 7 -13 21
-13 31 0 12 -7 18 -21 18 -11 0 -18 4 -15 8 2 4 -5 9 -17 9 -18 2 -19 0 -7 -8
11 -7 4 -8 -25 -4 -28 4 -46 1 -60 -9 -11 -9 -28 -16 -38 -16 -14 0 -16 5 -11
26 5 19 4 25 -5 20 -6 -4 -11 -3 -11 2 0 16 47 42 75 42 16 0 24 4 19 11 -3 6
-15 9 -25 6 -10 -3 -20 0 -22 6 -2 8 -12 6 -30 -6 -34 -22 -51 -22 -43 0 6 14
4 14 -14 -2 l-22 -20 26 -20 c16 -12 27 -33 30 -53 2 -17 9 -39 16 -47 7 -8
10 -25 6 -40 -5 -21 -3 -25 16 -26 17 -1 19 -2 6 -6 -22 -6 -24 -43 -3 -43 13
0 14 -4 5 -20 -7 -14 -7 -20 0 -20 5 0 10 -11 10 -25 0 -17 6 -25 18 -25 21
-1 54 -25 45 -33 -3 -4 -1 -7 6 -7 7 0 10 -4 6 -10 -3 -5 -13 -7 -23 -4 -10 4
-13 2 -7 -3 16 -13 36 -53 27 -53 -4 0 -14 6 -21 13 -10 10 -12 8 -9 -8 2 -11
10 -20 18 -20 8 0 16 -10 18 -22 2 -13 8 -23 13 -23 6 0 7 -4 4 -10 -3 -5 -17
-10 -30 -10 -24 0 -47 20 -23 20 8 0 6 5 -5 11 -9 6 -15 14 -12 20 3 5 -1 6
-10 3 -11 -4 -14 -2 -10 9 4 8 -1 17 -11 21 -13 5 -14 9 -4 21 15 18 5 66 -13
61 -6 -1 -9 -1 -4 1 4 3 7 14 7 25 0 13 -6 18 -17 16 -10 -2 -18 -12 -18 -23
0 -11 -6 -20 -13 -20 -20 0 -12 -16 62 -114 92 -122 91 -121 105 -121 9 0 9 5
1 20 -6 11 -17 20 -25 20 -7 0 -16 4 -19 8 -2 4 4 8 15 8 10 0 19 -4 19 -8 0
-4 5 -8 11 -8 5 0 7 5 4 10 -3 6 -2 10 4 10 5 0 13 -5 16 -10 4 -6 11 -8 16
-5 5 4 9 0 9 -7 0 -7 5 -5 11 6 9 14 8 20 -1 26 -9 6 -9 9 1 12 8 3 21 0 29
-8 13 -11 17 -9 27 12 11 23 1 35 -12 14 -9 -15 -25 -12 -25 6 0 14 -2 14 -22
0 -24 -17 -39 -21 -36 -8 1 4 -2 17 -6 30 -5 15 -3 29 6 39 12 15 10 16 -14
10 -15 -4 -30 -3 -33 3 -3 5 -1 10 4 10 6 0 10 11 9 25 -1 14 -6 25 -10 25 -4
0 -8 9 -8 20 0 11 -6 19 -12 18 -7 -2 -12 3 -10 10 1 6 -2 12 -7 12 -12 0 -21
39 -10 46 5 3 9 -1 9 -9 0 -8 7 -20 15 -27 13 -10 19 -10 33 2 15 13 19 13 34
-3 9 -9 14 -20 11 -23 -3 -3 0 -12 7 -21 7 -9 10 -18 6 -22 -3 -4 -13 3 -22
15 -21 31 -38 28 -30 -5 9 -34 36 -59 47 -42 11 19 39 2 50 -29 5 -16 20 -35
33 -41 26 -15 30 -41 7 -58 -18 -13 -9 -29 9 -18 21 13 33 58 18 70 -7 5 -14
16 -16 23 -3 15 -36 64 -64 96 -10 11 -18 28 -18 38 0 10 -5 18 -11 18 -5 0
-7 5 -4 10 4 6 3 10 -2 9 -23 -4 -33 3 -33 24 0 18 2 19 11 7 9 -12 10 -12 7
-1 -7 26 -28 24 -28 -3 0 -13 -4 -28 -10 -31 -5 -3 -10 4 -10 16 0 19 -2 20
-17 8 -15 -13 -15 -12 -4 8 10 21 10 23 -8 20 -11 -2 -24 -6 -27 -10 -11 -11
-46 -8 -39 3 3 5 12 7 20 4 10 -4 12 0 8 17 -4 14 -2 20 4 16 18 -11 22 18 6
38 -13 16 -15 17 -10 3 4 -11 -1 -21 -13 -28 -26 -14 -26 -14 -22 25 2 19 8
32 13 29 5 -3 9 0 9 6 0 8 6 8 20 0 11 -6 18 -15 15 -20 -9 -15 12 -21 24 -6
9 11 7 15 -10 19 -11 3 -18 10 -15 16 10 16 45 -9 43 -31 -1 -10 -7 -18 -14
-18 -7 0 -13 -7 -13 -16 0 -9 5 -12 12 -8 6 4 17 -1 24 -10 8 -11 14 -13 19
-7 3 6 1 11 -4 11 -6 0 -11 12 -11 28 0 22 4 27 25 27 28 0 35 -15 8 -15 -15
-1 -13 -3 5 -13 12 -7 19 -17 15 -22 -4 -4 -3 -5 3 -2 6 4 20 -1 30 -9 10 -9
13 -13 6 -9 -15 8 -42 -12 -42 -31 0 -10 9 -12 32 -7 23 5 29 3 24 -6 -5 -7
-14 -10 -22 -7 -8 3 -14 1 -14 -4 0 -6 7 -10 16 -10 13 0 14 -3 4 -14 -7 -10
-8 -21 -3 -31 8 -13 16 -9 53 25 24 22 47 40 52 40 5 0 7 4 4 9 -3 5 8 15 26
24 l31 15 -43 21 c-52 25 -54 25 -46 6 3 -8 2 -15 -2 -15 -4 0 -21 36 -38 80
-17 45 -29 78 -26 75 3 -3 21 9 40 27 19 18 32 28 28 21 -4 -7 1 -11 13 -10
16 1 18 4 9 15 -9 10 -8 16 3 23 21 13 22 12 75 -26 27 -20 61 -43 76 -53 34
-21 38 -46 6 -36 -13 4 -34 15 -47 26 -13 10 -27 15 -30 11 -3 -4 -10 -11 -16
-15 -5 -5 1 -7 15 -6 20 2 25 -1 23 -17 -1 -11 0 -15 3 -8 7 15 50 -3 58 -24
8 -20 -4 -64 -15 -57 -5 3 -12 -3 -16 -13 -9 -24 -35 -44 -50 -38 -7 2 -15 0
-18 -4 -2 -5 6 -12 20 -15 32 -8 33 -30 1 -24 -13 3 -32 -1 -42 -9 -10 -7 -13
-13 -7 -13 7 0 14 4 17 9 10 15 58 0 52 -16 -3 -8 -6 -19 -6 -25 0 -6 -11 -3
-25 6 -13 9 -39 16 -57 16 -28 -1 -30 -2 -15 -11 10 -6 27 -9 37 -6 22 6 45
-17 35 -33 -4 -7 -14 -5 -28 5 -31 22 -39 19 -32 -14 8 -39 -12 -51 -36 -20
-13 17 -15 27 -7 36 8 10 6 13 -6 13 -10 0 -14 -4 -11 -10 3 -5 2 -10 -4 -10
-5 0 -11 5 -13 12 -2 6 -9 8 -16 4 -17 -10 -3 -35 19 -31 23 5 35 -13 19 -28
-9 -9 -11 -9 -7 -1 4 7 0 15 -8 18 -13 5 -14 2 -5 -15 7 -13 17 -18 29 -14 10
3 24 -1 31 -10 7 -8 9 -15 5 -15 -4 0 -2 -7 5 -15 10 -12 10 -15 -4 -15 -9 0
-16 -5 -16 -11 0 -6 9 -8 23 -3 12 4 27 7 32 7 6 0 11 11 11 24 1 13 9 32 18
41 14 16 14 18 -4 18 -11 0 -20 -4 -20 -9 0 -4 -5 -5 -10 -2 -18 11 8 33 36
30 20 -2 28 5 44 43 11 24 20 64 20 88 0 24 4 44 10 44 5 0 7 -7 4 -15 -4 -9
0 -15 9 -15 10 0 13 9 11 27 -1 15 1 32 6 38 4 5 9 15 9 20 1 6 5 10 10 10 5
0 13 4 18 9 5 5 3 6 -4 2 -7 -4 -13 -2 -13 3 0 6 5 11 10 11 6 0 10 5 10 11 0
5 -4 7 -10 4 -5 -3 -10 2 -10 12 0 11 -16 25 -41 37 -26 12 -37 21 -29 26 9 5
9 9 1 14 -6 4 -11 2 -11 -4 0 -6 -5 -8 -10 -5 -6 4 -8 11 -5 16 4 5 -3 9 -15
9 -13 0 -19 4 -14 12 4 7 3 8 -4 4 -6 -4 -19 -2 -29 3 -10 5 -26 12 -35 15
-11 3 -15 12 -11 25 6 25 0 27 -17 6z m-10 -345 c-11 -11 -29 -20 -40 -20 -18
0 -19 2 -8 23 18 31 29 37 50 26 17 -9 17 -10 -2 -29z"/>
<path d="M1200 2473 c-8 -3 -22 -7 -30 -10 -16 -7 -26 -10 -37 -12 -5 -1 -1
-6 7 -11 10 -6 22 -4 36 5 12 8 31 12 42 10 11 -2 28 3 39 10 17 13 16 14 -12
13 -16 -1 -37 -3 -45 -5z"/>
<path d="M1437 2465 c-10 -7 -17 -22 -15 -32 3 -15 6 -14 22 10 22 32 19 41
-7 22z"/>
<path d="M2500 2439 c-109 -15 -131 -20 -125 -29 3 -4 -1 -10 -7 -13 -32 -11
4 -16 52 -7 29 6 55 8 58 5 9 -9 -50 -25 -94 -25 -34 0 -44 4 -44 16 0 14 -3
14 -15 4 -12 -10 -15 -10 -15 1 0 11 -2 11 -9 -1 -6 -8 -8 -17 -5 -21 5 -8
-38 -16 -126 -24 -81 -6 -41 9 49 20 40 4 61 12 61 20 0 7 -6 15 -12 17 -19 7
-201 -21 -212 -32 -7 -7 -6 -10 0 -10 14 0 14 -33 1 -42 -27 -17 54 -19 176
-4 74 9 141 16 150 16 12 0 17 -19 22 -97 7 -87 9 -95 22 -77 9 12 12 32 9 55
l-6 36 112 14 c74 9 113 18 116 27 3 10 -4 13 -24 12 -44 -3 -45 -2 -13 33 25
27 31 29 39 17 5 -8 10 -18 10 -22 0 -19 19 -6 22 15 l3 22 14 -24 c9 -17 10
-26 2 -34 -15 -15 -14 -27 3 -27 24 0 29 -20 10 -35 -18 -14 -18 -14 4 -15 12
0 22 5 22 12 0 8 3 9 11 1 5 -5 21 -8 35 -5 22 4 23 5 7 17 -15 11 -15 15 -4
29 10 12 11 19 2 30 -8 10 -8 21 -1 40 13 36 13 36 -10 36 -18 0 -20 -7 -20
-65 0 -36 -4 -65 -9 -65 -9 0 -31 83 -31 114 0 9 -9 12 -24 9 -17 -4 -26 0
-29 14 -4 16 -6 16 -12 -4 -4 -13 -11 -20 -17 -17 -5 3 -21 -2 -35 -11 -20
-14 -23 -19 -12 -26 10 -6 8 -9 -8 -9 -17 0 -21 -4 -16 -17 4 -10 2 -14 -4
-10 -6 4 -14 1 -17 -5 -5 -10 -7 -10 -12 0 -5 10 -9 10 -20 1 -11 -9 -14 -9
-14 1 0 9 -7 7 -21 -6 -22 -19 -22 -19 -14 5 6 20 4 23 -9 18 -9 -4 -16 -2
-16 2 0 5 6 12 13 14 9 4 9 6 -1 6 -10 1 -10 4 2 16 8 8 19 15 25 15 6 0 8 7
5 15 -4 8 -1 15 5 15 6 0 11 -4 11 -8 0 -14 58 -12 69 2 10 12 4 57 -8 55 -3
-1 -35 -5 -71 -10z"/>
<path d="M1069 2413 c-13 -16 -12 -17 3 -5 10 8 19 9 22 3 4 -5 2 -12 -4 -16
-6 -4 -4 -15 6 -31 9 -13 13 -24 9 -24 -4 0 -2 -7 5 -15 18 -22 5 -31 -15 -11
-18 18 -41 21 -50 6 -3 -5 6 -12 20 -16 28 -7 31 -14 13 -34 -11 -12 -10 -12
4 -1 12 9 22 10 36 2 19 -10 32 -6 32 11 0 5 -6 6 -12 2 -8 -5 -8 -1 1 10 12
14 13 21 2 38 -7 11 -8 17 -2 13 6 -3 11 1 11 9 0 9 -4 16 -8 16 -4 0 -16 14
-25 30 -21 35 -29 37 -48 13z"/>
<path d="M10 2410 c-9 -6 -3 -10 20 -12 18 -2 35 -8 37 -15 3 -8 -6 -9 -32 -3
-30 7 -36 6 -33 -8 4 -19 133 -64 162 -55 10 3 16 1 13 -3 -3 -5 16 -10 42
-11 25 -1 67 -7 94 -14 50 -12 55 -22 41 -77 -6 -20 -12 -23 -58 -21 -28 0
-94 -8 -146 -20 -52 -11 -107 -20 -122 -20 -16 -1 -28 -5 -28 -10 0 -9 39 -8
132 4 22 3 38 1 38 -5 0 -19 65 -10 108 15 35 20 42 21 42 8 0 -9 8 -22 18
-29 9 -7 12 -14 6 -14 -7 0 -9 -18 -6 -51 3 -38 2 -50 -7 -45 -6 4 -9 12 -6
17 4 5 -8 9 -24 9 -27 0 -31 -3 -31 -29 0 -26 -3 -29 -47 -35 -27 -3 -87 -9
-136 -13 l-87 -6 15 -23 c19 -29 19 -48 0 -64 -18 -15 -21 -100 -4 -100 6 0 9
7 5 15 -3 10 1 15 13 15 11 0 26 3 34 6 11 4 13 -1 10 -20 -3 -14 -10 -26 -16
-26 -6 0 -7 -3 -4 -6 9 -9 38 16 32 27 -3 4 11 11 32 14 21 4 50 9 66 11 16 3
27 1 27 -5 0 -6 18 -11 40 -11 36 0 40 -2 40 -25 0 -14 5 -25 10 -25 6 0 10 9
10 20 0 13 7 20 20 20 13 0 20 -7 20 -20 0 -11 -5 -20 -11 -20 -5 0 -7 -5 -3
-11 4 -8 -43 -9 -165 -3 -113 4 -171 3 -171 -3 0 -15 61 -23 178 -23 l103 0
-6 -122 c-6 -142 9 -152 25 -17 8 58 17 93 32 114 12 16 21 38 21 47 -1 10 3
16 8 12 5 -3 23 9 40 27 31 33 31 33 9 41 -14 5 -28 4 -36 -3 -9 -7 -14 -8
-14 -1 0 5 -9 8 -20 5 -11 -3 -27 -2 -36 1 -16 6 -16 8 0 24 9 10 16 24 16 30
0 7 5 12 10 12 6 0 10 -4 10 -9 0 -6 -4 -13 -10 -16 -13 -8 -13 -35 0 -35 6 0
10 7 10 15 0 8 3 15 8 15 4 0 9 46 11 103 2 56 6 145 10 197 l7 95 12 -43 c7
-24 10 -53 6 -65 -6 -19 -5 -20 10 -8 12 10 19 11 30 2 11 -9 15 -7 19 9 3 11
1 21 -4 21 -5 1 -13 2 -18 3 -20 2 -29 22 -36 79 -4 40 -3 57 5 57 6 0 9 4 6
9 -9 14 -123 34 -156 27 -17 -3 -54 -1 -83 5 -58 12 -85 29 -47 29 l24 0 -22
22 c-22 23 -87 33 -112 18z m305 -91 c57 -15 68 -19 64 -24 -3 -2 -36 4 -74
15 -39 10 -61 19 -50 19 11 1 38 -4 60 -10z m25 -335 c0 -12 -6 -15 -24 -10
-27 7 -40 -12 -25 -35 7 -11 9 -11 9 4 0 11 7 17 23 16 16 -1 18 -2 5 -6 -13
-3 -18 -15 -18 -44 0 -28 -4 -39 -15 -39 -9 0 -15 -9 -15 -22 0 -14 -4 -18 -9
-12 -6 5 -6 25 0 52 5 24 7 48 3 53 -3 6 -3 20 0 32 6 27 66 37 66 11z m-140
-48 c13 13 50 7 50 -7 0 -5 -4 -9 -10 -9 -5 0 -10 -9 -10 -20 0 -11 -5 -20
-11 -20 -6 0 -9 9 -6 20 3 12 0 20 -8 20 -7 0 -16 -20 -21 -47 -6 -33 -15 -49
-27 -51 -15 -3 -17 5 -17 66 0 38 3 71 6 75 4 3 15 -4 25 -16 13 -16 20 -19
29 -11z m-88 -4 c8 -8 8 -15 -2 -27 -16 -19 -25 -19 -50 2 -25 21 -25 30 -2
35 25 6 41 3 54 -10z m-52 -77 c0 -12 -7 -25 -15 -29 -11 -4 -15 2 -15 23 0
15 3 31 6 34 12 11 24 -3 24 -28z"/>
<path d="M909 2407 c-1 -7 -2 -21 -2 -32 1 -19 0 -19 -13 0 -14 18 -14 18 -14
-3 0 -14 6 -22 18 -22 20 0 40 -28 36 -53 -1 -9 2 -15 7 -11 5 3 9 1 9 -5 0
-5 -10 -12 -22 -14 -14 -3 -10 -4 10 -4 17 1 32 2 32 4 0 1 -11 28 -25 59 -18
40 -22 60 -15 69 8 9 6 14 -5 19 -8 3 -16 0 -16 -7z"/>
<path d="M956 2388 c5 -8 2 -9 -10 -5 -14 6 -15 3 -6 -13 6 -11 13 -20 16 -20
3 0 2 5 -2 12 -4 7 -3 8 5 4 6 -4 9 -11 7 -15 -3 -4 4 -32 15 -61 11 -29 17
-55 14 -58 -3 -3 -5 0 -5 6 0 7 -15 12 -35 12 -34 0 -46 -12 -25 -25 6 -4 8
-11 5 -16 -4 -5 -1 -9 6 -9 6 0 9 8 6 20 -4 15 0 20 15 20 17 0 18 -2 8 -15
-7 -9 -10 -18 -7 -22 4 -3 2 -12 -4 -19 -7 -9 -7 -18 0 -31 10 -17 10 -17 11
2 0 17 2 17 10 5 14 -21 12 -36 -6 -54 -8 -9 -11 -16 -5 -16 6 0 11 -5 11 -12
0 -8 -7 -6 -17 5 -16 15 -16 19 -3 27 8 5 11 13 6 17 -4 4 -13 0 -21 -10 -12
-16 -13 -16 -26 0 -12 15 -12 16 3 11 11 -5 18 0 21 13 3 10 1 19 -4 19 -5 0
-9 -4 -9 -10 0 -17 -17 -11 -23 8 -2 11 -17 21 -35 25 -17 3 -36 12 -43 20
-12 12 -16 12 -28 0 -10 -10 -16 -11 -21 -3 -5 7 -11 5 -21 -6 -12 -16 -12
-17 4 -11 13 5 17 3 15 -5 -3 -7 -16 -15 -29 -18 -13 -3 -25 -13 -25 -22 -2
-21 1 -22 27 -7 15 7 24 7 34 -1 10 -9 15 -6 20 11 5 14 2 25 -6 30 -11 7 -10
9 3 9 9 0 24 -3 34 -7 16 -6 16 -7 -2 -15 -14 -6 -8 -7 18 -5 43 3 60 -19 32
-40 -16 -12 -15 -13 10 -13 15 0 25 -4 22 -9 -3 -5 2 -8 11 -7 10 0 18 -7 20
-19 3 -20 3 -20 -6 0 -5 11 -10 14 -10 7 -1 -9 -9 -9 -36 3 l-36 14 18 -30
c24 -42 45 -58 51 -41 3 10 7 10 18 1 11 -9 14 -7 14 15 0 14 5 26 10 26 6 0
10 -7 10 -15 0 -13 3 -13 20 -3 11 7 16 14 10 16 -14 5 -12 21 5 38 13 13 15
12 19 -8 10 -54 6 -68 -20 -68 -14 0 -23 -4 -20 -9 3 -4 -1 -17 -9 -27 -13
-16 -16 -17 -24 -4 -17 25 -25 2 -13 -39 18 -57 15 -82 -8 -88 -11 -3 -20 -14
-20 -24 0 -11 -7 -19 -15 -19 -8 0 -15 7 -15 15 0 8 5 15 10 15 6 0 10 6 10
13 -1 6 -10 1 -21 -12 l-20 -25 7 30 c4 16 11 34 16 41 5 7 7 17 3 22 -3 7 0
8 9 5 11 -4 14 0 11 15 -2 12 1 21 7 21 6 0 5 6 -3 16 -12 14 -14 13 -21 -6
-6 -17 -11 -20 -21 -12 -8 7 -18 7 -27 2 -8 -6 -25 -10 -37 -10 -13 0 -28 -9
-35 -20 -18 -29 -26 -25 -24 12 1 32 0 33 -46 35 -38 2 -50 -2 -62 -18 -8 -12
-17 -16 -20 -11 -7 12 40 52 59 52 7 0 15 9 18 20 3 11 12 20 21 20 9 0 16 5
16 10 0 6 -4 10 -9 10 -23 0 -1 36 28 46 17 5 29 13 25 16 -9 10 -55 -10 -71
-30 -12 -15 -13 -13 -7 17 5 30 4 32 -9 20 -8 -8 -14 -18 -14 -23 1 -5 -4 -11
-12 -14 -8 -3 -11 0 -7 7 5 7 -3 11 -22 11 -18 0 -32 -6 -36 -16 -9 -22 -8
-24 10 -24 8 0 13 4 10 9 -3 5 1 12 10 15 8 3 12 2 9 -4 -4 -6 7 -10 24 -10
47 0 46 -17 -3 -66 -42 -41 -49 -45 -83 -39 -36 5 -58 15 -35 15 21 0 12 16
-10 17 -41 4 -58 -14 -58 -62 0 -25 3 -45 6 -45 4 0 17 11 30 25 24 26 58 33
69 15 4 -6 11 -7 17 -4 7 5 9 1 5 -9 -4 -11 -1 -17 8 -17 8 0 15 4 15 10 0 18
108 -79 112 -100 2 -8 7 -18 13 -22 6 -5 5 -12 -3 -20 -9 -9 -5 -15 19 -25 17
-7 36 -10 42 -6 6 3 7 1 3 -5 -4 -7 -3 -12 2 -12 15 0 53 58 42 65 -14 9 -2
25 18 25 15 0 15 -2 2 -11 -13 -9 -12 -10 3 -5 22 7 22 3 -9 -45 -14 -23 -21
-39 -16 -35 5 3 46 6 91 7 66 1 83 5 91 19 5 10 6 20 3 24 -3 3 1 6 11 6 9 0
14 -4 11 -10 -7 -11 8 -14 18 -3 8 7 -23 32 -40 33 -8 0 -13 -13 -13 -32 0
-25 -3 -29 -12 -20 -7 7 -20 12 -29 12 -16 0 -18 9 -15 64 2 42 8 70 19 80 11
12 17 13 20 3 4 -9 6 -9 6 0 1 17 -20 27 -29 13 -5 -8 -9 -7 -13 4 -13 34 40
15 107 -39 37 -30 72 -52 77 -49 5 3 7 10 3 15 -3 5 -9 7 -14 4 -4 -3 -10 2
-14 10 -3 8 -1 15 5 15 6 0 7 5 4 10 -3 6 -1 10 5 10 6 0 8 5 5 11 -4 6 -13 8
-21 5 -7 -3 -16 -1 -19 5 -4 5 -10 7 -15 4 -4 -2 -10 6 -12 20 -4 19 -2 23 7
15 9 -8 17 -6 28 5 9 8 20 15 26 15 14 0 14 -23 0 -37 -7 -7 -6 -12 5 -16 11
-4 13 -1 10 11 -4 11 2 8 15 -8 12 -14 20 -35 18 -46 -3 -17 0 -20 15 -16 14
3 16 8 9 15 -17 17 -13 31 4 17 8 -7 15 -19 15 -28 0 -8 3 -12 7 -9 3 4 13 1
21 -6 35 -28 -8 30 -60 82 -29 29 -61 65 -70 80 -14 20 -18 22 -18 9 0 -10 5
-18 10 -18 6 0 10 -5 10 -12 0 -6 -8 -4 -19 6 -17 15 -19 15 -25 1 -3 -9 1
-18 9 -21 8 -4 12 -10 9 -16 -3 -5 -13 1 -22 14 -9 13 -22 27 -29 31 -7 4 -13
17 -13 28 0 11 5 17 10 14 6 -4 8 -11 5 -16 -4 -5 -1 -9 4 -9 6 0 11 9 11 19
0 26 19 37 32 20 8 -12 9 -11 5 1 -3 10 3 15 20 16 19 2 23 -2 18 -17 -4 -10
-2 -19 4 -19 12 0 26 45 17 58 -3 5 1 9 8 9 8 0 12 -7 9 -16 -4 -13 -3 -13 5
-2 17 23 3 43 -25 36 -18 -4 -23 -2 -19 7 3 7 9 21 12 31 4 9 10 17 15 17 9 0
5 118 -5 127 -7 8 -28 -46 -21 -57 3 -5 -4 -15 -15 -23 -14 -10 -18 -20 -13
-32 5 -15 3 -17 -12 -11 -18 6 -18 6 -2 -12 24 -26 21 -64 -8 -85 -28 -20 -40
-9 -30 31 4 18 3 24 -3 17 -6 -5 -12 -21 -15 -35 -4 -23 -5 -23 -12 8 -6 26
-12 32 -26 29 -13 -4 -19 2 -21 22 -3 27 27 65 43 55 5 -3 9 1 9 8 0 10 2 10
9 -1 6 -9 11 -10 15 -2 4 6 2 11 -3 11 -6 0 -10 3 -9 8 1 4 -2 18 -6 30 -6 18
-14 23 -29 20 -20 -4 -22 0 -22 41 0 37 4 46 19 49 10 2 23 -1 29 -7 6 -6 16
-11 22 -11 15 1 -35 40 -50 40 -7 0 -15 -6 -18 -12 -4 -10 -7 -10 -18 0 -17
15 -43 16 -33 0z m94 -138 c8 -5 13 -10 10 -11 -3 0 -15 -2 -27 -5 -16 -3 -23
1 -23 11 0 17 18 19 40 5z m5 -271 c4 -11 4 -23 1 -27 -11 -10 -36 -11 -36 -1
0 6 -4 8 -9 5 -5 -3 -11 1 -15 9 -3 8 -1 15 5 15 6 0 7 5 4 10 -3 6 5 10 19
10 16 0 27 -7 31 -21z m-191 -85 c-8 -11 -12 -23 -10 -25 3 -2 -10 -4 -27 -4
-40 0 -58 32 -31 52 24 18 34 16 34 -4 0 -13 5 -11 18 10 14 23 18 25 23 10 3
-10 0 -27 -7 -39z m-169 36 c5 -8 11 -7 21 1 15 12 19 -1 16 -44 -1 -10 2 -16
7 -13 5 3 12 -1 15 -10 12 -31 -3 -26 -43 15 -22 23 -45 41 -51 41 -5 0 -10 5
-10 10 0 13 37 13 45 0z m405 -34 c14 -16 18 -26 10 -21 -29 16 -50 38 -50 54
0 8 3 11 8 6 4 -6 18 -23 32 -39z m-277 -54 c-17 -13 -16 -14 5 -7 16 5 22 2
22 -9 0 -9 -11 -18 -25 -22 -14 -3 -25 -10 -25 -15 0 -6 -8 -6 -19 0 -22 12
-38 46 -18 38 7 -3 19 3 25 13 6 11 21 18 32 17 20 -1 20 -2 3 -15z m24 -65
c-2 -7 -11 -11 -20 -9 -8 1 -18 -2 -22 -8 -8 -13 -25 -13 -25 0 0 6 7 10 15
10 8 0 15 4 15 8 0 4 9 8 21 9 12 1 19 -3 16 -10z"/>
<path d="M1495 2360 c-10 -11 -15 -23 -12 -27 8 -7 47 25 47 39 0 14 -16 9
-35 -12z"/>
<path d="M1865 2353 c2 -10 4 -24 4 -30 1 -20 21 -15 21 5 0 13 2 14 9 3 7
-10 13 -11 27 -2 11 7 12 10 4 8 -8 -2 -23 5 -34 15 -25 23 -35 23 -31 1z"/>
<path d="M513 2285 c0 -33 2 -45 4 -27 2 18 2 45 0 60 -2 15 -4 0 -4 -33z"/>
<path d="M841 2326 c-9 -11 -9 -15 1 -19 9 -4 5 -12 -12 -26 -14 -11 -21 -21
-16 -21 6 0 21 10 34 23 l24 22 -6 -22 c-5 -15 -2 -25 11 -32 16 -9 14 -10 -9
-11 -27 0 -37 -13 -19 -24 5 -4 11 0 14 6 2 7 8 10 12 6 4 -4 2 -16 -6 -25
-13 -17 -13 -17 7 0 11 9 24 14 27 10 14 -13 6 19 -13 58 l-21 40 25 -7 c29
-7 42 9 21 26 -12 10 -15 9 -15 -3 0 -17 -29 -13 -41 5 -3 5 -11 2 -18 -6z"/>
<path d="M1589 2320 c-9 -5 -24 -21 -34 -36 -14 -22 -15 -28 -4 -35 24 -15 38
-10 54 21 22 43 18 47 -13 12 -16 -18 -32 -29 -36 -25 -3 4 8 22 26 40 33 34
35 39 7 23z"/>
<path d="M1955 2320 c3 -5 1 -10 -6 -10 -7 0 -4 -7 7 -15 10 -8 14 -15 7 -15
-11 0 -23 -25 -29 -58 -1 -7 5 -16 13 -19 13 -5 12 -8 -5 -14 -27 -10 -30 -42
-4 -37 9 2 18 9 18 16 1 6 3 15 4 20 1 4 1 12 0 17 -7 33 -6 55 2 53 5 -2 9
-7 8 -12 -3 -15 25 -25 48 -19 26 6 28 16 8 32 -11 10 -16 9 -23 -4 -9 -15
-11 -15 -22 -1 -14 17 -6 40 11 30 7 -4 8 -2 4 4 -4 7 -3 12 3 12 5 0 13 -4
16 -10 7 -12 25 -13 25 -2 0 6 -72 42 -86 42 -3 0 -2 -4 1 -10z"/>
<path d="M419 2300 c-1 -5 -1 -17 -1 -25 0 -30 2 -34 18 -28 10 4 17 -1 21
-16 3 -11 10 -18 15 -15 5 3 1 15 -9 26 -13 15 -15 22 -5 25 6 3 12 9 12 14 0
6 -5 7 -10 4 -6 -3 -13 1 -16 9 -7 18 -23 21 -25 6z"/>
<path d="M56 2284 c-8 -21 -8 -21 9 -28 11 -4 15 1 15 19 0 28 -15 33 -24 9z"/>
<path d="M184 2255 c1 -20 6 -35 13 -35 7 0 10 7 7 15 -4 10 0 15 11 15 24 0
15 34 -11 38 -18 3 -20 -2 -20 -33z"/>
<path d="M1748 2248 c-16 -28 -19 -58 -5 -58 5 0 7 9 4 19 -3 12 0 18 7 16 6
-3 20 2 31 11 17 13 18 16 5 24 -22 14 -28 12 -42 -12z"/>
<path d="M2095 2260 c-3 -5 -3 -21 1 -35 4 -16 2 -25 -5 -25 -7 0 -11 6 -10
13 3 25 -1 38 -11 32 -6 -4 -8 -11 -5 -16 4 -5 -1 -9 -9 -9 -9 0 -16 -5 -16
-11 0 -6 -7 -8 -16 -5 -14 5 -15 4 -5 -8 8 -9 8 -16 2 -20 -18 -12 1 -36 28
-35 21 0 22 2 8 8 -22 8 -24 21 -5 32 21 13 28 11 21 -8 -4 -13 0 -11 15 5 13
15 26 21 34 16 7 -5 5 4 -5 20 -14 21 -16 30 -6 42 7 9 8 14 1 14 -6 0 -13 -4
-17 -10z"/>
<path d="M2674 2247 c-3 -9 0 -49 8 -89 l13 -73 3 79 c3 76 -10 120 -24 83z"/>
<path d="M20 2224 c0 -15 78 -34 141 -34 82 0 87 6 13 15 -28 3 -66 10 -85 15
-38 11 -69 13 -69 4z"/>
<path d="M659 2171 c-49 -49 -50 -62 -3 -46 28 10 39 21 49 49 16 47 3 46 -46
-3z"/>
<path d="M2724 2194 c-15 -6 -1 -103 20 -140 l16 -29 -7 40 c-3 22 -7 61 -7
88 0 47 -1 49 -22 41z"/>
<path d="M2786 2003 c3 -187 17 -298 36 -287 9 6 5 54 -6 72 -4 7 -4 32 0 55
10 58 6 115 -11 147 -11 21 -12 36 -5 61 6 19 10 54 10 79 0 25 5 51 12 58 9
9 6 12 -14 12 l-26 0 4 -197z"/>
<path d="M2492 2170 c-16 -26 -15 -30 8 -30 14 0 18 5 13 18 -6 15 -5 16 12 2
14 -12 19 -12 23 -2 3 9 8 10 16 3 8 -6 19 -3 36 9 l25 20 -60 0 c-49 0 -62
-4 -73 -20z"/>
<path d="M1972 2168 c4 -9 1 -21 -5 -27 -9 -9 -8 -14 3 -21 12 -8 12 -10 1
-10 -8 0 -19 7 -26 16 -9 13 -16 14 -31 6 -11 -7 -13 -12 -6 -12 7 0 10 -4 7
-10 -3 -5 1 -21 10 -34 9 -14 14 -30 10 -36 -3 -5 1 -13 9 -16 25 -9 19 -29
-9 -30 -14 -1 -22 2 -19 7 10 17 -31 -4 -52 -27 -29 -30 -37 -54 -19 -54 9 0
15 9 15 22 0 15 3 19 10 12 14 -14 -5 -64 -24 -64 -20 0 -46 39 -39 59 4 9 3
13 -2 9 -4 -4 -9 -26 -10 -50 -4 -66 -4 -68 -19 -68 -9 0 -12 8 -8 25 2 15 0
25 -7 25 -7 0 -10 -4 -6 -9 3 -5 0 -13 -5 -16 -8 -5 -7 -12 4 -23 8 -10 15
-21 15 -27 2 -21 13 -45 20 -45 11 0 31 23 31 37 0 7 -6 10 -14 7 -11 -4 -13
0 -9 15 5 21 23 30 23 12 0 -17 32 -21 46 -6 12 12 12 15 2 16 -49 3 -67 14
-50 31 9 9 12 9 12 0 0 -17 48 -4 71 19 12 12 14 19 6 22 -15 6 -20 54 -7 62
6 3 10 1 10 -6 0 -10 3 -10 11 -2 9 9 15 8 27 -3 8 -8 11 -18 7 -22 -4 -4 -10
-1 -12 6 -5 13 -23 7 -23 -9 0 -6 4 -8 9 -4 5 3 12 1 16 -5 13 -22 33 -10 31
19 -1 17 2 28 6 25 8 -5 12 9 9 36 -2 13 0 13 8 1 5 -8 7 -20 4 -27 -2 -6 0
-15 6 -19 7 -4 11 8 11 34 0 22 -5 42 -12 44 -8 3 -6 6 5 6 10 1 18 10 19 21
0 11 1 25 2 32 1 6 -5 13 -13 16 -8 3 -11 0 -7 -7 4 -6 2 -11 -4 -11 -7 0 -10
7 -6 15 3 9 -4 25 -16 37 -14 14 -19 16 -16 6z m11 -78 c-1 -3 -4 -17 -8 -32
-9 -35 -33 -37 -30 -3 2 14 -1 25 -6 25 -5 0 -9 4 -9 9 0 6 12 9 28 8 15 -1
26 -5 25 -7z"/>
<path d="M2609 2153 c-12 -15 -12 -16 4 -10 9 3 17 2 17 -3 0 -6 -6 -10 -12
-10 -9 0 -8 -4 2 -10 23 -15 27 -12 22 20 -5 34 -13 37 -33 13z"/>
<path d="M2176 2145 c-3 -8 -12 -12 -21 -9 -8 3 -15 1 -15 -5 0 -6 -11 -11
-25 -11 -30 0 -32 -11 -5 -28 13 -8 27 -9 38 -4 19 11 45 5 37 -8 -3 -5 -1
-11 5 -15 5 -3 10 1 10 9 0 18 -36 40 -50 31 -5 -3 -7 0 -4 8 8 22 44 13 59
-15 7 -15 10 -30 7 -34 -4 -4 1 -4 11 -1 10 4 24 7 31 7 17 0 16 28 -1 34 -8
3 -11 1 -8 -4 3 -6 0 -10 -8 -10 -8 0 -22 16 -31 35 -19 39 -22 41 -30 20z"/>
<path d="M775 2063 c-8 -34 -8 -37 5 -41 8 -3 10 3 5 17 -5 15 -2 21 10 21 12
0 15 -6 10 -20 -5 -15 -2 -20 12 -19 12 0 13 2 5 6 -10 4 -8 11 8 28 l21 23
-35 4 c-30 3 -36 0 -41 -19z"/>
<path d="M1880 2065 c0 -9 -11 -21 -25 -27 -26 -12 -31 -23 -15 -33 6 -3 10 2
10 12 0 12 3 14 8 6 8 -13 34 -2 31 13 -4 22 2 35 13 28 7 -4 8 -3 4 4 -10 17
-26 15 -26 -3z"/>
<path d="M554 2036 l-28 -23 32 5 c18 2 35 8 37 12 3 5 17 2 32 -5 24 -13 28
-12 38 8 13 25 1 35 -20 17 -10 -8 -19 -8 -34 -1 -26 14 -26 15 -57 -13z"/>
<path d="M2063 2052 c-25 -4 -39 -31 -19 -38 8 -3 13 -14 11 -23 -3 -14 2 -17
21 -13 13 2 24 11 24 18 0 8 5 14 10 14 6 0 10 5 10 11 0 7 -10 9 -24 5 -14
-3 -28 -2 -31 4 -4 6 7 10 26 10 18 0 29 3 25 7 -8 8 -24 10 -53 5z"/>
<path d="M2254 2045 c-3 -8 -3 -19 1 -25 4 -6 1 -9 -6 -8 -6 2 -14 -3 -16 -10
-4 -10 3 -9 27 3 18 9 30 13 27 8 -3 -5 -2 -15 4 -23 6 -10 9 -11 9 -2 0 25
19 11 30 -22 6 -19 18 -37 27 -40 12 -5 13 -3 6 6 -6 7 -9 26 -7 41 2 22 -3
31 -22 39 -13 6 -24 15 -24 21 0 5 -11 6 -25 3 -19 -5 -23 -3 -19 9 4 8 3 15
0 15 -4 0 -9 -7 -12 -15z"/>
<path d="M1739 2033 c-1 -5 -3 -24 -5 -43 -2 -23 -11 -42 -29 -56 -22 -17 -24
-22 -11 -27 17 -7 22 -2 53 66 13 27 20 53 17 58 -6 11 -23 12 -25 2z"/>
<path d="M2163 2021 c-11 -10 -12 -16 -4 -19 6 -2 11 -10 11 -18 0 -17 -1 -17
-34 -5 -36 14 -52 -9 -27 -37 24 -29 37 -28 18 1 -13 21 -13 23 4 23 11 0 19
-3 19 -7 0 -4 3 -14 6 -22 3 -10 -3 -18 -20 -23 l-25 -9 24 -11 c13 -7 24 -9
23 -5 -2 20 3 31 13 25 8 -5 8 -1 0 14 -13 25 -14 35 -2 28 7 -5 29 15 59 55
11 14 8 17 -19 21 -20 3 -36 -1 -46 -11z"/>
<path d="M835 2011 c-3 -5 -20 -7 -39 -4 -20 3 -36 1 -41 -6 -5 -8 1 -10 20
-5 19 5 30 1 40 -12 13 -18 14 -18 15 -1 0 9 7 17 15 17 8 0 15 5 15 10 0 13
-17 13 -25 1z"/>
<path d="M2192 1954 c-14 -15 -8 -34 11 -34 7 0 6 4 -3 10 -13 8 -12 10 3 10
9 0 17 -4 17 -10 0 -14 13 -13 33 3 16 11 15 12 -9 14 -15 0 -29 5 -33 11 -4
6 -11 4 -19 -4z"/>
<path d="M426 1914 c-9 -25 -7 -64 4 -64 6 0 10 18 10 40 0 43 -4 50 -14 24z"/>
<path d="M2280 1921 c0 -8 -6 -11 -16 -7 -9 4 -22 2 -29 -4 -7 -6 -18 -9 -24
-8 -15 4 -48 -49 -37 -59 4 -4 16 3 26 17 10 14 22 22 26 18 4 -4 1 -15 -7
-25 -13 -15 -12 -16 6 -9 25 10 35 10 58 1 9 -4 17 -3 17 3 0 5 -15 12 -32 16
l-33 6 30 24 c17 13 27 28 23 32 -5 4 -8 2 -8 -5z"/>
<path d="M1951 1898 c-7 -11 -7 -18 -1 -18 5 0 10 6 10 13 0 6 5 4 11 -6 8
-14 8 -22 0 -30 -8 -8 -11 -7 -11 3 0 11 -3 11 -12 2 -8 -8 -8 -15 2 -26 7 -9
16 -14 20 -11 9 6 25 -53 16 -62 -3 -3 -12 -3 -21 1 -13 4 -14 10 -5 26 9 16
8 22 -6 27 -9 3 -20 0 -24 -7 -4 -7 -14 -10 -22 -7 -8 3 -19 -3 -26 -13 -7
-12 -19 -16 -38 -12 -18 3 -29 0 -36 -12 -7 -13 -13 -14 -23 -6 -15 12 -31 -3
-20 -19 7 -12 57 -4 66 11 4 7 9 6 14 -1 4 -7 -5 -37 -20 -67 -22 -44 -31 -55
-46 -51 -11 3 -19 1 -19 -5 0 -5 -4 -6 -10 -3 -5 3 -10 15 -10 27 0 20 1 20
26 3 25 -16 25 -16 14 6 -11 20 -10 21 9 16 18 -4 20 -3 11 8 -7 8 -9 19 -5
25 3 5 1 10 -4 10 -6 0 -11 -6 -11 -14 0 -19 -14 -28 -34 -20 -21 8 -12 73 13
92 13 11 9 12 -29 8 -25 -3 -39 -2 -32 1 6 2 12 9 12 14 0 6 -4 8 -9 5 -5 -3
-11 4 -15 16 -4 17 -8 20 -17 11 -8 -8 -8 -16 1 -32 15 -29 -4 -47 -53 -48
-25 -1 -47 -9 -63 -24 -17 -16 -24 -18 -24 -8 0 12 -2 11 -10 -1 -9 -13 -11
-13 -20 0 -22 33 -6 58 22 33 17 -15 19 -15 38 2 11 10 20 23 20 28 0 6 -7 2
-15 -9 -14 -18 -14 -18 -15 0 0 10 8 25 18 33 13 10 13 13 2 11 -8 -2 -20 -14
-27 -28 -7 -14 -12 -19 -13 -12 0 7 -4 11 -9 8 -8 -5 -25 29 -22 47 1 4 -3 7
-7 7 -11 0 -35 -51 -27 -58 3 -3 -7 -13 -21 -23 -26 -17 -26 -17 -6 -28 12 -6
27 -10 34 -9 6 2 12 -2 13 -8 0 -6 32 -46 70 -88 39 -43 77 -89 85 -102 17
-28 26 -30 34 -9 3 9 0 15 -9 15 -8 0 -15 5 -15 10 0 6 4 10 8 10 12 0 43 105
36 123 -3 10 -14 14 -30 11 -22 -4 -23 -2 -14 22 6 14 16 35 24 45 12 18 15
18 29 5 8 -8 19 -12 23 -8 5 4 -1 -5 -13 -19 -25 -27 -30 -45 -11 -33 7 5 8 3
3 -6 -5 -8 -2 -17 7 -24 16 -12 33 -66 20 -66 -4 0 -14 6 -21 13 -11 10 -13 9
-7 -6 3 -10 6 -21 6 -23 0 -10 22 -2 52 19 71 48 108 80 102 88 -3 5 -2 9 3 8
15 -2 53 13 53 22 0 5 -6 7 -12 5 -7 -1 -10 -1 -5 1 11 7 -2 23 -18 23 -8 0
-11 -7 -8 -20 3 -11 0 -20 -6 -20 -20 0 -11 34 14 59 14 13 25 19 25 13 0 -6
14 -15 30 -21 17 -5 30 -15 30 -20 0 -17 -21 -13 -37 7 -12 15 -13 14 -7 -13
9 -39 19 -45 74 -45 25 0 54 -6 65 -13 31 -21 53 -27 51 -14 -4 26 -19 37 -52
37 -36 0 -48 22 -19 34 17 6 135 -69 135 -86 0 -6 6 -6 15 2 8 6 19 9 24 6 5
-4 13 -2 16 4 5 7 11 8 19 1 7 -6 29 -12 49 -14 52 -6 112 -67 102 -104 -5
-21 -4 -24 7 -16 14 11 58 0 58 -15 0 -30 -89 -77 -127 -67 -15 3 -25 -1 -32
-12 -9 -17 -13 -17 -71 3 l-62 22 -75 -29 c-41 -16 -78 -27 -83 -24 -5 3 -11
1 -15 -5 -8 -13 -55 -13 -55 1 0 18 138 148 164 155 31 7 43 34 16 34 -11 0
-20 -4 -20 -10 0 -5 -7 -10 -16 -10 -22 0 -108 -77 -155 -139 l-40 -54 143 7
c79 3 203 7 276 8 120 1 134 0 146 -18 8 -10 18 -15 23 -11 10 11 -25 37 -48
37 -10 0 -21 5 -24 10 -4 6 7 10 27 10 18 0 97 5 176 12 119 10 142 14 142 28
0 9 4 20 10 26 5 5 6 35 3 68 -5 51 -8 56 -15 35 -6 -13 -10 -41 -10 -61 1
-21 -2 -37 -6 -36 -4 1 -20 -4 -35 -10 -16 -7 -36 -12 -46 -12 -10 0 -31 -4
-47 -9 -16 -5 -60 -12 -99 -14 l-70 -6 53 55 c54 56 57 61 44 82 -15 22 -39 4
-34 -26 4 -26 4 -26 -11 -7 -8 11 -13 23 -11 27 3 4 -2 5 -11 2 -21 -8 -45 14
-38 34 5 14 3 15 -8 5 -17 -17 -26 -16 -33 3 -4 9 -2 13 5 8 7 -4 10 -1 7 7
-3 8 -13 14 -24 15 -10 0 -32 6 -48 12 -16 7 -37 10 -46 7 -12 -4 -28 4 -46
22 -25 24 -29 26 -32 11 -5 -25 -22 -23 -22 2 0 12 7 20 16 20 9 0 27 -9 41
-20 28 -21 53 -26 53 -10 0 6 -9 10 -21 10 -12 0 -23 8 -26 20 -3 11 -9 17
-14 14 -5 -3 -9 -1 -9 5 0 6 -6 8 -13 5 -21 -8 -51 31 -39 52 6 11 11 13 16 5
4 -6 1 -11 -6 -12 -7 0 -4 -4 7 -8 14 -6 24 -3 32 8 15 21 -2 43 -31 40 -29
-3 -56 10 -56 28 0 8 -5 11 -11 8 -6 -4 -16 1 -23 10 -10 14 -14 15 -23 3 -7
-7 -14 -27 -16 -43 -4 -36 -35 -48 -33 -13 1 13 7 22 15 20 7 -1 10 2 6 8 -3
6 -10 8 -15 5 -5 -3 -8 3 -7 14 1 14 5 17 12 11 8 -7 12 -5 12 5 0 8 -9 15
-19 15 -11 0 -18 -7 -18 -18 0 -10 -6 -19 -14 -19 -8 0 -15 3 -14 6 5 46 -19
64 -41 29z m126 -118 c1 -11 -4 -20 -12 -20 -7 0 -16 -6 -19 -12 -3 -7 -3 -2
0 12 5 20 16 34 29 40 1 0 1 -9 2 -20z m46 -25 c3 -20 1 -25 -12 -23 -14 3
-17 12 -12 49 2 18 18 0 24 -26z m46 -1 c13 -29 9 -39 -11 -31 -15 5 -23 57
-9 57 4 0 13 -12 20 -26z m-543 -29 c-3 -8 -1 -15 5 -15 6 0 8 -4 5 -9 -10
-15 5 -40 20 -34 9 3 14 -1 14 -12 0 -9 -4 -14 -9 -10 -5 3 -12 1 -16 -5 -3
-5 -15 -10 -25 -10 -17 0 -18 -4 -9 -26 8 -24 8 -25 -6 -14 -8 7 -15 21 -15
32 0 13 -4 17 -12 12 -9 -5 -9 -3 1 9 7 9 17 15 21 12 4 -3 13 2 20 10 10 12
9 15 -4 15 -19 0 -21 25 -3 45 16 19 21 19 13 0z"/>
<path d="M1700 1876 c0 -9 -5 -16 -10 -16 -6 0 -5 -8 2 -19 14 -23 32 -16 25
10 -3 10 -2 17 2 16 3 -1 7 3 9 8 2 6 -4 11 -12 13 -9 2 -16 -3 -16 -12z"/>
<path d="M1018 1873 c-2 -15 -6 -28 -8 -33 -9 -24 -6 -38 6 -33 8 3 14 19 14
39 0 30 -7 47 -12 27z"/>
<path d="M1629 1851 c-31 -27 -49 -81 -27 -81 4 0 8 9 8 20 0 23 4 24 32 9 18
-10 20 -9 14 6 -3 9 -3 22 1 28 8 13 15 47 9 47 -2 0 -18 -13 -37 -29z"/>
<path d="M1058 1834 c24 -35 58 -49 66 -28 3 8 0 11 -8 8 -7 -3 -20 1 -27 8
-8 7 -23 20 -34 28 -17 13 -17 12 3 -16z"/>
<path d="M2245 1804 c7 -15 11 -32 9 -39 -3 -7 3 -15 13 -19 10 -3 25 -9 33
-12 12 -5 12 -4 3 6 -15 16 -6 40 15 40 12 0 10 6 -8 25 -25 27 -45 33 -37 13
2 -7 10 -12 17 -10 8 2 10 -3 6 -13 -3 -9 -6 -21 -6 -26 0 -6 -5 -7 -10 -4 -6
4 -8 10 -5 15 8 12 -17 50 -32 50 -9 0 -8 -7 2 -26z"/>
<path d="M1381 1804 c-18 -13 -20 -18 -10 -25 8 -5 23 -6 34 -4 11 3 14 2 8
-1 -7 -3 -13 -10 -13 -15 0 -17 18 0 34 31 13 28 6 44 -10 19 -5 -8 -8 -8 -13
0 -5 7 -14 6 -30 -5z"/>
<path d="M1175 1790 c-20 -23 -4 -28 18 -6 8 8 18 11 23 7 5 -4 21 -12 36 -19
26 -11 27 -10 16 8 -7 11 -20 20 -30 20 -9 0 -23 2 -30 5 -8 3 -23 -3 -33 -15z"/>
<path d="M150 1783 c8 -3 17 -9 20 -13 3 -4 30 -10 60 -13 30 -3 46 -3 35 0
-11 3 -25 9 -31 14 -5 4 -20 6 -32 2 -13 -3 -22 -1 -22 6 0 6 -10 11 -22 10
-16 0 -18 -2 -8 -6z"/>
<path d="M600 1765 c0 -9 73 -36 84 -31 6 2 3 5 -6 5 -10 1 -18 6 -18 12 0 5
-4 8 -9 4 -5 -3 -12 -1 -16 5 -6 10 -35 14 -35 5z"/>
<path d="M1074 1742 c-17 -15 -39 -32 -50 -39 -15 -10 -12 -10 11 0 40 16 85
47 85 58 0 15 -14 10 -46 -19z"/>
<path d="M1253 1713 c16 -25 48 -52 93 -78 107 -61 126 -78 169 -149 29 -47
46 -65 62 -66 12 0 23 -6 26 -12 2 -7 8 -10 12 -6 13 12 -3 38 -24 38 -13 0
-41 27 -80 79 -49 64 -112 120 -141 126 -32 6 -110 71 -110 92 0 7 -7 13 -15
13 -12 0 -10 -8 8 -37z"/>
<path d="M2328 1708 c4 -15 10 -18 30 -13 15 4 28 1 32 -6 6 -9 17 -8 46 1 22
7 43 16 48 21 18 16 -4 22 -31 10 -16 -7 -30 -12 -32 -11 -2 1 -8 -4 -12 -12
-7 -10 -9 -9 -9 5 0 17 -3 19 -51 22 -21 2 -25 -2 -21 -17z"/>
<path d="M1016 1661 c-3 -5 -21 -12 -41 -15 -19 -4 -37 -12 -41 -17 -4 -8 1
-9 17 -4 34 11 62 12 79 4 11 -5 15 -1 15 17 0 23 -18 33 -29 15z"/>
<path d="M1874 1641 c-10 -10 -3 -21 14 -21 20 0 42 -18 42 -35 0 -7 -23 -36
-51 -66 -27 -30 -57 -71 -66 -91 -8 -21 -20 -39 -27 -39 -13 -2 41 -16 66 -18
10 0 22 9 28 22 9 18 9 20 -2 7 -15 -17 -58 -15 -58 3 0 12 30 53 113 157 27
33 43 60 37 60 -6 0 -8 5 -5 10 3 6 -1 10 -9 10 -10 0 -13 -6 -9 -16 5 -14 3
-14 -15 -3 -15 10 -18 16 -9 21 7 5 0 7 -16 6 -15 -1 -30 -4 -33 -7z"/>
<path d="M724 1619 c-18 -23 -27 -45 -10 -25 14 17 16 18 16 3 0 -9 7 -17 16
-17 8 0 12 -4 9 -10 -3 -5 2 -10 11 -10 16 0 15 2 -3 23 -11 12 -22 28 -25 36
-3 11 -5 11 -14 0z"/>
<path d="M665 1598 c-14 -21 -14 -23 2 -30 29 -11 36 -9 23 7 -7 8 -10 22 -6
30 8 22 0 18 -19 -7z"/>
<path d="M2714 1586 c-19 -31 -22 -62 -4 -51 5 3 6 13 3 22 -4 10 -2 14 4 10
6 -4 13 5 16 21 3 15 5 28 4 28 -1 1 -11 -13 -23 -30z"/>
<path d="M1219 1539 c30 -28 62 -54 70 -57 34 -15 131 -77 131 -85 0 -11 -81
2 -97 15 -7 6 -13 6 -13 1 0 -5 -19 -9 -42 -10 -35 0 -55 8 -106 44 -35 25
-65 43 -68 40 -2 -2 14 -17 36 -32 22 -15 38 -30 36 -34 -5 -8 -108 -7 -238 2
-71 4 -93 10 -126 32 -36 24 -48 26 -97 21 -31 -3 -60 -8 -64 -10 -7 -5 -78
-7 -143 -5 -10 0 -18 6 -18 12 -1 7 -9 2 -20 -11 -17 -21 -23 -22 -70 -14 -27
5 -50 6 -50 1 0 -8 -34 -16 -110 -23 -91 -9 -225 -27 -229 -32 -15 -15 30 -15
201 0 278 25 486 31 629 17 68 -6 237 -18 374 -26 355 -21 393 -23 362 -18
-22 3 -27 8 -22 24 7 20 -9 27 -20 9 -3 -5 -17 -10 -29 -10 -29 0 -229 120
-276 166 -20 19 -40 34 -45 34 -6 -1 14 -24 44 -51z"/>
<path d="M408 1553 c-6 -26 -11 -31 -25 -26 -16 6 -16 4 2 -16 l19 -22 9 23
c4 12 7 34 5 48 -3 23 -4 23 -10 -7z"/>
<path d="M1692 1549 l1 -31 18 23 c13 17 14 26 6 31 -21 13 -26 9 -25 -23z"/>
<path d="M1786 1557 c3 -8 -9 -29 -26 -46 -35 -38 -38 -46 -11 -31 18 9 61 69
61 84 0 3 -7 6 -15 6 -8 0 -12 -6 -9 -13z"/>
<path d="M2824 1448 c3 -13 6 -38 6 -55 0 -18 5 -33 11 -33 6 0 9 7 6 15 -4 8
-1 17 5 21 7 4 6 9 -2 14 -18 11 -2 30 26 30 22 0 24 -4 25 -52 1 -29 3 -62 4
-73 2 -11 6 -47 9 -80 10 -105 18 -146 30 -142 6 2 10 15 10 28 -11 175 -14
224 -15 282 l-2 67 -60 0 c-57 0 -59 -1 -53 -22z"/>
<path d="M2761 1430 c-6 -20 -7 -30 0 -30 6 0 8 -4 5 -9 -3 -5 1 -15 10 -22
14 -12 16 -9 13 21 -2 19 -8 38 -14 42 -6 5 -5 8 3 8 6 0 12 5 12 10 0 21 -19
8 -29 -20z"/>
<path d="M1691 1424 c-9 -21 -17 -25 -36 -21 -27 5 -27 5 -20 -15 4 -9 16 -13
34 -10 23 3 30 10 35 35 8 39 2 44 -13 11z"/>
<path d="M2205 1354 c-16 -2 -95 -11 -175 -20 -80 -9 -188 -23 -240 -31 -127
-20 -204 -25 -232 -13 -15 6 -18 9 -7 9 19 1 42 25 33 34 -4 3 -21 -1 -38 -10
-17 -10 -44 -19 -61 -20 -16 -2 -54 -11 -84 -19 -55 -16 -83 -12 -40 5 23 9
23 10 -8 10 -17 1 -107 -10 -200 -23 -209 -31 -334 -44 -583 -61 -189 -12
-196 -12 -234 7 -22 11 -69 24 -105 29 -36 4 -103 19 -149 32 -117 34 -97 13
28 -29 57 -19 110 -40 117 -46 20 -16 137 -45 170 -42 254 25 545 44 694 44
75 1 149 5 165 10 26 7 24 8 -21 10 l-50 2 35 10 c29 8 74 8 215 -2 6 0 42 6
80 14 39 9 89 15 112 16 41 0 42 -1 38 -31 -2 -17 -9 -37 -16 -45 -9 -11 -9
-18 -1 -26 9 -9 12 -7 12 10 0 12 5 22 10 22 6 0 10 7 10 16 0 14 2 14 16 3 9
-7 20 -23 25 -36 5 -13 13 -23 18 -23 15 0 0 42 -27 78 -14 18 -23 34 -21 36
2 2 102 6 222 9 120 3 221 8 225 11 3 3 -8 7 -24 7 -31 2 57 14 196 28 79 8
81 8 27 10 -36 0 -56 5 -52 11 6 10 -16 11 -80 4z"/>
<path d="M1095 1339 c-27 -5 -121 -15 -209 -24 -87 -8 -163 -18 -169 -22 -6
-4 -27 -10 -47 -14 -30 -7 -28 -7 15 -5 28 2 75 8 105 14 30 7 87 14 125 16
88 5 359 36 364 42 7 7 -132 2 -184 -7z"/>
<path d="M2469 1342 c12 -8 12 -13 2 -25 -8 -10 -9 -17 -1 -22 5 -3 10 -2 10
4 0 5 7 17 16 25 8 9 11 16 6 16 -6 0 -19 3 -29 6 -14 5 -15 4 -4 -4z"/>
<path d="M2837 1343 c-10 -9 -8 -61 2 -67 5 -3 14 0 20 8 9 11 8 15 -4 20 -11
4 -14 13 -10 26 6 20 4 25 -8 13z"/>
<path d="M2220 1300 c-26 -5 -15 -7 45 -8 56 0 71 3 50 8 -37 9 -50 9 -95 0z"/>
<path d="M2783 1278 c0 -18 -2 -39 -4 -47 -2 -7 2 -16 9 -18 8 -3 12 10 12 46
0 28 -4 51 -9 51 -5 0 -9 -15 -8 -32z"/>
<path d="M20 1250 c0 -10 -3 -25 -6 -34 -5 -13 1 -16 25 -16 26 0 31 4 31 23
0 14 -9 26 -25 34 -22 10 -25 9 -25 -7z"/>
<path d="M2000 1260 c0 -5 7 -10 15 -10 8 0 20 -9 27 -20 13 -20 38 -27 38
-11 0 12 -54 51 -69 51 -6 0 -11 -4 -11 -10z"/>
<path d="M86 1233 c-3 -4 -5 -27 -5 -52 2 -43 2 -44 8 -12 3 19 14 37 23 40
17 6 17 7 -1 18 -10 7 -22 9 -25 6z"/>
<path d="M1530 1230 c0 -9 31 -30 44 -30 13 0 5 28 -10 34 -23 9 -34 7 -34 -4z"/>
<path d="M2369 1209 c-7 -13 -7 -24 -2 -28 6 -3 13 -13 16 -21 3 -8 6 4 6 28
1 47 -3 52 -20 21z"/>
<path d="M130 1190 c0 -5 12 -12 28 -16 15 -3 37 -9 50 -14 36 -15 25 5 -13
23 -40 19 -65 22 -65 7z"/>
<path d="M2776 1191 c-8 -12 4 -70 15 -77 5 -3 9 13 9 35 0 39 -13 61 -24 42z"/>
<path d="M1940 1171 c0 -12 4 -19 10 -16 6 3 10 -1 10 -9 0 -9 5 -16 10 -16
17 0 11 26 -10 45 -19 18 -20 17 -20 -4z"/>
<path d="M289 1023 c-1 -32 -1 -85 -1 -118 1 -33 -4 -90 -9 -127 -7 -46 -7
-72 0 -85 9 -15 10 -14 11 12 0 17 4 35 9 40 14 16 21 74 10 81 -6 3 -7 13 -4
23 11 26 12 72 2 78 -5 3 -5 38 -2 79 5 52 4 74 -4 74 -7 0 -11 -22 -12 -57z"/>
<path d="M1963 1066 c-13 -6 -23 -17 -23 -24 0 -9 12 -6 43 9 23 12 44 23 46
25 10 9 -46 1 -66 -10z"/>
<path d="M2937 1063 c-12 -11 -8 -40 8 -53 13 -11 15 -7 15 24 0 34 -8 44 -23
29z"/>
<path d="M2033 1038 c-13 -6 -23 -15 -23 -21 0 -5 6 -4 14 2 8 6 18 11 22 10
19 -3 34 2 34 11 0 13 -19 12 -47 -2z"/>
<path d="M708 964 c-5 -4 -8 -21 -8 -38 0 -21 3 -27 11 -19 6 6 9 23 7 38 -2
15 -6 23 -10 19z"/>
<path d="M2950 954 c0 -8 -5 -12 -10 -9 -13 8 -9 -17 4 -27 5 -3 11 -17 13
-29 7 -44 13 -32 13 24 0 31 -4 57 -10 57 -5 0 -10 -7 -10 -16z"/>
<path d="M438 948 c-2 -7 -5 -33 -6 -58 -2 -41 -1 -43 10 -20 6 14 10 39 8 55
-2 35 -6 41 -12 23z"/>
<path d="M107 801 c-24 -23 -26 -29 -14 -39 8 -7 14 -30 14 -53 0 -22 4 -44
10 -50 5 -5 7 4 5 26 -2 19 1 57 8 85 7 28 11 53 9 54 -2 2 -17 -9 -32 -23z"/>
</g>
</svg>
